<svg width="144" height="734" viewBox="0 0 144 734" fill="none" xmlns="http://www.w3.org/2000/svg">
<mask id="path-1-outside-1_61_327" maskUnits="userSpaceOnUse" x="0" y="0" width="144" height="734" fill="black">
<rect fill="white" width="144" height="734"/>
<path d="M46.44 583.746C39.34 583.746 33.7192 584.524 29.5775 586.079C25.4358 587.635 22.3 590.208 20.17 593.798C18.04 597.388 16.6792 602.115 16.0875 607.978C15.4958 613.782 15.2 620.992 15.2 629.608L15.2 669.906C15.2 677.564 15.4367 684.026 15.91 689.292C16.3242 694.497 17.2117 698.805 18.5725 702.216C19.9333 705.626 21.8858 708.259 24.43 710.114C26.9742 711.969 30.3467 713.315 34.5475 714.153C38.7483 714.99 43.9254 715.469 50.0788 715.589C56.1729 715.708 63.48 715.768 72 715.768C80.52 715.768 87.8567 715.708 94.01 715.589C100.104 715.409 105.252 714.9 109.453 714.063C113.653 713.225 117.026 711.909 119.57 710.114C122.114 708.259 124.067 705.626 125.428 702.216C126.788 698.805 127.705 694.497 128.179 689.292C128.593 684.026 128.8 677.564 128.8 669.906V629.608C128.8 622.907 128.623 617.133 128.268 612.286C127.913 607.44 127.262 603.311 126.315 599.901C125.368 596.49 124.067 593.738 122.41 591.644C120.753 589.55 118.683 587.934 116.198 586.797C113.653 585.601 110.636 584.793 107.145 584.374C103.595 583.955 99.4533 583.746 94.72 583.746V566.514C100.4 566.514 105.548 566.873 110.163 567.591C114.718 568.309 118.801 569.595 122.41 571.45C125.96 573.245 129.037 575.668 131.64 578.72C134.243 581.771 136.403 585.631 138.119 590.298C139.775 594.965 140.988 600.529 141.758 606.991C142.586 613.453 143 620.992 143 629.608V669.906C143 680.436 142.349 689.322 141.048 696.562C139.805 703.742 137.912 709.665 135.368 714.332C132.764 718.999 129.51 722.619 125.605 725.192C121.7 727.705 117.115 729.56 111.849 730.756C106.583 731.893 100.637 732.551 94.01 732.731C87.3833 732.91 80.0467 733 72 733C63.9533 733 56.6167 732.91 49.99 732.731C43.3633 732.551 37.4171 731.893 32.1513 730.756C26.8854 729.56 22.3 727.705 18.395 725.192C14.49 722.619 11.2654 718.999 8.72125 714.332C6.11792 709.665 4.195 703.742 2.9525 696.562C1.65083 689.322 1 680.436 1 669.906L1 629.608C1 620.992 1.41417 613.453 2.2425 606.991C3.01167 600.529 4.22458 594.965 5.88125 590.298C7.47875 585.631 9.52 581.771 12.005 578.72C14.49 575.668 17.4188 573.245 20.7913 571.45C24.1638 569.595 27.98 568.309 32.24 567.591C36.5 566.873 41.2333 566.514 46.44 566.514V583.746Z"/>
<path d="M126.138 446.249C126.848 446.429 128.623 447.775 131.463 450.288C133.592 452.083 135.486 454.476 137.143 457.468C138.74 460.46 139.982 464.468 140.87 469.494C141.817 474.461 142.29 481.012 142.29 489.15C142.29 499.979 141.728 509.224 140.604 516.882C139.539 524.541 137.882 530.794 135.634 535.64C133.326 540.487 130.398 544.047 126.848 546.32C123.298 548.534 119.067 549.641 114.156 549.641C109.009 549.641 104.66 549.043 101.11 547.846C97.5008 546.589 94.4833 544.794 92.0575 542.461C89.6317 540.068 87.7383 537.196 86.3775 533.845C85.0167 530.494 83.9813 526.695 83.2713 522.447C82.5613 518.139 82.1175 513.442 81.94 508.356C81.7625 503.27 81.6738 497.855 81.6738 492.111C81.6738 483.914 82.0288 477.063 82.7388 471.559C83.3896 466.054 84.2475 461.566 85.3125 458.096C86.3183 454.566 87.4129 451.903 88.5963 450.108C89.7796 448.313 90.8742 447.027 91.88 446.249C85.2533 446.249 79.6029 446.548 74.9287 447.147C70.2546 447.685 66.3496 448.613 63.2138 449.929C60.0779 451.185 57.5929 452.831 55.7588 454.865C53.8654 456.899 52.4454 459.412 51.4988 462.404C50.5521 465.336 49.9604 468.776 49.7238 472.725C49.4279 476.674 49.28 481.192 49.28 486.278C49.28 494.176 49.4871 500.727 49.9013 505.933C50.2563 511.138 50.9958 515.267 52.12 518.318C53.2442 521.37 54.8121 523.524 56.8238 524.78C58.7763 526.037 61.35 526.665 64.545 526.665V543.897C59.1608 543.897 54.605 542.94 50.8775 541.025C47.15 539.051 44.1325 535.82 41.825 531.332C39.4583 526.785 37.7425 520.831 36.6775 513.472C35.6125 506.112 35.08 497.048 35.08 486.278C35.08 475.747 35.9379 466.832 37.6538 459.532C39.3696 452.232 42.3871 446.339 46.7063 441.851C51.0254 437.304 56.8533 434.043 64.19 432.069C71.4675 430.034 80.6975 429.017 91.88 429.017H140.16V446.249H126.138ZM128.8 486.278C128.8 478.679 128.445 472.336 127.735 467.251C127.025 462.105 125.96 457.976 124.54 454.865C123.12 451.754 121.345 449.54 119.215 448.224C117.085 446.907 114.6 446.249 111.76 446.249C108.92 446.249 106.524 447.027 104.571 448.583C102.56 450.078 100.933 452.621 99.69 456.211C98.4475 459.742 97.56 464.438 97.0275 470.302C96.4358 476.166 96.14 483.406 96.14 492.022C96.14 500.638 96.2879 507.608 96.5838 512.933C96.8796 518.199 97.56 522.267 98.625 525.139C99.69 528.011 101.258 529.956 103.329 530.973C105.4 531.93 108.21 532.409 111.76 532.409C115.31 532.409 118.209 531.9 120.458 530.883C122.647 529.806 124.363 527.652 125.605 524.421C126.848 521.19 127.705 516.553 128.179 510.51C128.593 504.407 128.8 496.33 128.8 486.278Z"/>
<path d="M93.5663 345.64C93.5663 353.777 93.4479 360.927 93.2113 367.09C92.9746 373.253 92.5013 378.578 91.7913 383.065C91.0221 387.493 89.9571 391.203 88.5963 394.194C87.2354 397.126 85.4308 399.46 83.1825 401.195C80.875 402.93 78.0646 404.156 74.7513 404.874C71.3788 405.592 67.74 405.951 63.835 405.951C58.51 405.951 54.0429 404.815 50.4338 402.541C46.7654 400.267 43.8071 396.617 41.5588 391.591C39.2513 386.565 37.5946 380.044 36.5888 372.026C35.5829 364.008 35.08 354.255 35.08 342.768C35.08 331.399 35.6717 322.035 36.855 314.676C38.0383 307.257 39.8725 301.393 42.3575 297.085C44.7833 292.717 47.86 289.665 51.5875 287.93C55.315 286.195 59.7525 285.328 64.9 285.328V302.56C61.705 302.56 59.1017 303.188 57.09 304.444C55.0783 305.641 53.5104 307.765 52.3863 310.817C51.2029 313.868 50.4042 317.997 49.99 323.202C49.5167 328.348 49.28 334.87 49.28 342.768C49.28 351.384 49.3983 358.623 49.635 364.487C49.8717 370.351 50.4633 375.077 51.41 378.667C52.3567 382.257 53.8063 384.83 55.7588 386.386C57.7113 387.942 60.4033 388.719 63.835 388.719C65.8467 388.719 67.8288 388.6 69.7813 388.36C71.6746 388.061 73.2425 387.433 74.485 386.476C75.7275 385.518 76.6742 384.112 77.325 382.257C77.9758 380.403 78.4788 377.89 78.8338 374.718C79.1296 371.487 79.3071 367.509 79.3662 362.782C79.3662 358.055 79.3662 352.341 79.3662 345.64C79.3662 337.502 79.5438 330.382 79.8988 324.279C80.2538 318.116 80.875 312.791 81.7625 308.304C82.65 303.816 84.0108 300.106 85.845 297.175C87.6792 294.243 89.6908 291.909 91.88 290.174C94.01 288.379 96.5542 287.123 99.5125 286.405C102.412 285.687 105.784 285.328 109.63 285.328C113.476 285.328 116.937 285.687 120.014 286.405C123.031 287.123 125.723 288.379 128.09 290.174C130.398 291.969 132.409 294.422 134.125 297.534C135.782 300.585 137.143 304.444 138.208 309.111C139.213 313.778 139.953 319.373 140.426 325.895C140.959 332.357 141.225 339.896 141.225 348.512C141.225 359.281 140.693 368.346 139.628 375.706C138.563 383.005 136.876 388.899 134.569 393.386C132.202 397.874 129.155 401.105 125.428 403.079C121.7 404.994 117.144 405.951 111.76 405.951V388.719C115.31 388.719 118.209 388.121 120.458 386.924C122.647 385.668 124.363 383.514 125.605 380.462C126.848 377.411 127.705 373.312 128.179 368.167C128.593 362.961 128.8 356.41 128.8 348.512C128.8 341.332 128.652 335.229 128.356 330.203C128.001 325.117 127.469 320.869 126.759 317.458C126.049 314.048 125.191 311.355 124.185 309.381C123.179 307.406 121.966 305.91 120.546 304.893C119.126 303.876 117.558 303.248 115.843 303.008C114.068 302.709 112.115 302.56 109.985 302.56C108.033 302.56 106.317 302.709 104.838 303.008C103.299 303.248 101.79 303.846 100.311 304.803C98.7729 305.761 97.6192 307.167 96.85 309.022C96.0808 310.876 95.4596 313.419 94.9863 316.65C94.4538 319.821 94.0988 323.77 93.9212 328.497C93.6846 333.224 93.5663 338.938 93.5663 345.64Z"/>
<path d="M142.113 202.04C142.113 213.528 141.343 223.281 139.805 231.298C138.208 239.316 135.486 245.838 131.64 250.864C127.794 255.89 122.647 259.539 116.198 261.813C109.748 264.087 101.643 265.224 91.88 265.224C80.6975 265.224 71.4675 264.087 64.19 261.813C56.8533 259.539 51.0254 255.89 46.7063 250.864C42.3871 245.838 39.3696 239.316 37.6538 231.298C35.9379 223.281 35.08 213.528 35.08 202.04C35.08 193.843 35.6717 186.752 36.855 180.769C38.0383 174.726 39.7542 169.58 42.0025 165.332C44.2508 161.024 46.9725 157.554 50.1675 154.921C53.3625 152.229 56.735 150.134 60.285 148.639C63.7758 147.083 67.8879 146.036 72.6213 145.497C77.3546 144.899 82.3542 144.6 87.62 144.6L93.3 146.036L93.3 247.992C101.11 247.992 107.53 247.214 112.559 245.658C117.529 244.102 121.168 241.53 123.475 237.94C125.783 234.35 127.262 229.623 127.913 223.759C128.504 217.896 128.8 210.656 128.8 202.04C128.8 194.142 128.593 187.62 128.179 182.474C127.705 177.269 126.848 173.14 125.605 170.089C124.363 167.037 122.647 164.913 120.458 163.716C118.209 162.46 115.31 161.832 111.76 161.832L111.76 144.6C117.263 144.6 121.966 145.587 125.871 147.562C129.717 149.476 132.853 152.677 135.279 157.165C137.645 161.652 139.361 167.576 140.426 174.935C141.55 182.235 142.113 191.27 142.113 202.04ZM49.28 202.04C49.28 207.784 49.3983 212.929 49.635 217.477C49.8717 221.964 50.4042 225.913 51.2325 229.324C52.0017 232.674 53.1554 235.546 54.6938 237.94C56.1729 240.333 57.9479 242.278 60.0188 243.773C62.0304 245.209 64.9 246.286 68.6275 247.004C72.2958 247.663 76.7333 247.992 81.94 247.992V161.832C75.0175 161.832 69.6038 162.58 65.6988 164.076C61.7346 165.571 58.4804 167.935 55.9363 171.166C53.3921 174.397 51.6467 178.555 50.7 183.641C49.7533 188.727 49.28 194.86 49.28 202.04Z"/>
<path d="M93.5663 61.3119C93.5663 69.4492 93.4479 76.5993 93.2113 82.7621C92.9746 88.9249 92.5013 94.2501 91.7913 98.7376C91.0221 103.165 89.9571 106.875 88.5963 109.867C87.2354 112.798 85.4308 115.132 83.1825 116.867C80.875 118.602 78.0646 119.829 74.7513 120.547C71.3788 121.265 67.74 121.624 63.835 121.624C58.51 121.624 54.0429 120.487 50.4338 118.213C46.7654 115.94 43.8071 112.29 41.5588 107.264C39.2513 102.238 37.5946 95.716 36.5888 87.6984C35.5829 79.6807 35.08 69.9279 35.08 58.4399C35.08 47.0716 35.6717 37.7077 36.855 30.3482C38.0383 22.9289 39.8725 17.0652 42.3575 12.7572C44.7833 8.3894 47.86 5.33789 51.5875 3.60272C55.315 1.86755 59.7525 1 64.9 1V18.2319C61.705 18.2319 59.1017 18.8602 57.09 20.1167C55.0783 21.3134 53.5104 23.4374 52.3863 26.489C51.2029 29.5405 50.4042 33.6689 49.99 38.8745C49.5167 44.0201 49.28 50.5419 49.28 58.4399C49.28 67.0559 49.3983 74.2957 49.635 80.1594C49.8717 86.023 50.4633 90.7499 51.41 94.3398C52.3567 97.9299 53.8063 100.503 55.7588 102.058C57.7113 103.614 60.4033 104.392 63.835 104.392C65.8467 104.392 67.8288 104.272 69.7813 104.033C71.6746 103.734 73.2425 103.105 74.485 102.148C75.7275 101.191 76.6742 99.7847 77.325 97.9299C77.9758 96.075 78.4788 93.562 78.8338 90.3909C79.1296 87.1599 79.3071 83.181 79.3662 78.4541C79.3662 73.7273 79.3662 68.0132 79.3662 61.3119C79.3662 53.1746 79.5438 46.0544 79.8988 39.9514C80.2538 33.7886 80.875 28.4634 81.7625 23.976C82.65 19.4885 84.0108 15.7788 85.845 12.847C87.6792 9.91516 89.6908 7.58167 91.88 5.8465C94.01 4.05145 96.5542 2.79498 99.5125 2.07697C102.412 1.35895 105.784 1 109.63 1C113.476 1 116.937 1.35895 120.014 2.07697C123.031 2.79498 125.723 4.05145 128.09 5.8465C130.398 7.64148 132.409 10.0946 134.125 13.2059C135.782 16.2574 137.143 20.1167 138.208 24.7837C139.213 29.4507 139.953 35.0451 140.426 41.5669C140.959 48.0289 141.225 55.5679 141.225 64.1839C141.225 74.9539 140.693 84.0186 139.628 91.3781C138.563 98.6777 136.876 104.571 134.569 109.059C132.202 113.546 129.155 116.777 125.428 118.752C121.7 120.667 117.144 121.624 111.76 121.624V104.392C115.31 104.392 118.209 103.794 120.458 102.597C122.647 101.34 124.363 99.1863 125.605 96.1348C126.848 93.0834 127.705 88.9848 128.179 83.8391C128.593 78.6336 128.8 72.0819 128.8 64.1839C128.8 57.0039 128.652 50.9009 128.356 45.8749C128.001 40.7891 127.469 36.541 126.759 33.1304C126.049 29.7199 125.191 27.0275 124.185 25.0529C123.179 23.0784 121.966 21.5826 120.546 20.5654C119.126 19.5483 117.558 18.92 115.843 18.6807C114.068 18.3815 112.115 18.2319 109.985 18.2319C108.033 18.2319 106.317 18.3815 104.838 18.6807C103.299 18.92 101.79 19.5184 100.311 20.4757C98.7729 21.433 97.6192 22.8391 96.85 24.694C96.0808 26.5488 95.4596 29.0917 94.9863 32.3227C94.4538 35.4938 94.0988 39.4429 93.9212 44.1697C93.6846 48.8965 93.5663 54.6106 93.5663 61.3119Z"/>
</mask>
<path d="M46.44 583.746C39.34 583.746 33.7192 584.524 29.5775 586.079C25.4358 587.635 22.3 590.208 20.17 593.798C18.04 597.388 16.6792 602.115 16.0875 607.978C15.4958 613.782 15.2 620.992 15.2 629.608L15.2 669.906C15.2 677.564 15.4367 684.026 15.91 689.292C16.3242 694.497 17.2117 698.805 18.5725 702.216C19.9333 705.626 21.8858 708.259 24.43 710.114C26.9742 711.969 30.3467 713.315 34.5475 714.153C38.7483 714.99 43.9254 715.469 50.0788 715.589C56.1729 715.708 63.48 715.768 72 715.768C80.52 715.768 87.8567 715.708 94.01 715.589C100.104 715.409 105.252 714.9 109.453 714.063C113.653 713.225 117.026 711.909 119.57 710.114C122.114 708.259 124.067 705.626 125.428 702.216C126.788 698.805 127.705 694.497 128.179 689.292C128.593 684.026 128.8 677.564 128.8 669.906V629.608C128.8 622.907 128.623 617.133 128.268 612.286C127.913 607.44 127.262 603.311 126.315 599.901C125.368 596.49 124.067 593.738 122.41 591.644C120.753 589.55 118.683 587.934 116.198 586.797C113.653 585.601 110.636 584.793 107.145 584.374C103.595 583.955 99.4533 583.746 94.72 583.746V566.514C100.4 566.514 105.548 566.873 110.163 567.591C114.718 568.309 118.801 569.595 122.41 571.45C125.96 573.245 129.037 575.668 131.64 578.72C134.243 581.771 136.403 585.631 138.119 590.298C139.775 594.965 140.988 600.529 141.758 606.991C142.586 613.453 143 620.992 143 629.608V669.906C143 680.436 142.349 689.322 141.048 696.562C139.805 703.742 137.912 709.665 135.368 714.332C132.764 718.999 129.51 722.619 125.605 725.192C121.7 727.705 117.115 729.56 111.849 730.756C106.583 731.893 100.637 732.551 94.01 732.731C87.3833 732.91 80.0467 733 72 733C63.9533 733 56.6167 732.91 49.99 732.731C43.3633 732.551 37.4171 731.893 32.1513 730.756C26.8854 729.56 22.3 727.705 18.395 725.192C14.49 722.619 11.2654 718.999 8.72125 714.332C6.11792 709.665 4.195 703.742 2.9525 696.562C1.65083 689.322 1 680.436 1 669.906L1 629.608C1 620.992 1.41417 613.453 2.2425 606.991C3.01167 600.529 4.22458 594.965 5.88125 590.298C7.47875 585.631 9.52 581.771 12.005 578.72C14.49 575.668 17.4188 573.245 20.7913 571.45C24.1638 569.595 27.98 568.309 32.24 567.591C36.5 566.873 41.2333 566.514 46.44 566.514V583.746Z" fill="white"/>
<path d="M126.138 446.249C126.848 446.429 128.623 447.775 131.463 450.288C133.592 452.083 135.486 454.476 137.143 457.468C138.74 460.46 139.982 464.468 140.87 469.494C141.817 474.461 142.29 481.012 142.29 489.15C142.29 499.979 141.728 509.224 140.604 516.882C139.539 524.541 137.882 530.794 135.634 535.64C133.326 540.487 130.398 544.047 126.848 546.32C123.298 548.534 119.067 549.641 114.156 549.641C109.009 549.641 104.66 549.043 101.11 547.846C97.5008 546.589 94.4833 544.794 92.0575 542.461C89.6317 540.068 87.7383 537.196 86.3775 533.845C85.0167 530.494 83.9813 526.695 83.2713 522.447C82.5613 518.139 82.1175 513.442 81.94 508.356C81.7625 503.27 81.6738 497.855 81.6738 492.111C81.6738 483.914 82.0288 477.063 82.7388 471.559C83.3896 466.054 84.2475 461.566 85.3125 458.096C86.3183 454.566 87.4129 451.903 88.5963 450.108C89.7796 448.313 90.8742 447.027 91.88 446.249C85.2533 446.249 79.6029 446.548 74.9287 447.147C70.2546 447.685 66.3496 448.613 63.2138 449.929C60.0779 451.185 57.5929 452.831 55.7588 454.865C53.8654 456.899 52.4454 459.412 51.4988 462.404C50.5521 465.336 49.9604 468.776 49.7238 472.725C49.4279 476.674 49.28 481.192 49.28 486.278C49.28 494.176 49.4871 500.727 49.9013 505.933C50.2563 511.138 50.9958 515.267 52.12 518.318C53.2442 521.37 54.8121 523.524 56.8238 524.78C58.7763 526.037 61.35 526.665 64.545 526.665V543.897C59.1608 543.897 54.605 542.94 50.8775 541.025C47.15 539.051 44.1325 535.82 41.825 531.332C39.4583 526.785 37.7425 520.831 36.6775 513.472C35.6125 506.112 35.08 497.048 35.08 486.278C35.08 475.747 35.9379 466.832 37.6538 459.532C39.3696 452.232 42.3871 446.339 46.7063 441.851C51.0254 437.304 56.8533 434.043 64.19 432.069C71.4675 430.034 80.6975 429.017 91.88 429.017H140.16V446.249H126.138ZM128.8 486.278C128.8 478.679 128.445 472.336 127.735 467.251C127.025 462.105 125.96 457.976 124.54 454.865C123.12 451.754 121.345 449.54 119.215 448.224C117.085 446.907 114.6 446.249 111.76 446.249C108.92 446.249 106.524 447.027 104.571 448.583C102.56 450.078 100.933 452.621 99.69 456.211C98.4475 459.742 97.56 464.438 97.0275 470.302C96.4358 476.166 96.14 483.406 96.14 492.022C96.14 500.638 96.2879 507.608 96.5838 512.933C96.8796 518.199 97.56 522.267 98.625 525.139C99.69 528.011 101.258 529.956 103.329 530.973C105.4 531.93 108.21 532.409 111.76 532.409C115.31 532.409 118.209 531.9 120.458 530.883C122.647 529.806 124.363 527.652 125.605 524.421C126.848 521.19 127.705 516.553 128.179 510.51C128.593 504.407 128.8 496.33 128.8 486.278Z" fill="white"/>
<path d="M93.5663 345.64C93.5663 353.777 93.4479 360.927 93.2113 367.09C92.9746 373.253 92.5013 378.578 91.7913 383.065C91.0221 387.493 89.9571 391.203 88.5963 394.194C87.2354 397.126 85.4308 399.46 83.1825 401.195C80.875 402.93 78.0646 404.156 74.7513 404.874C71.3788 405.592 67.74 405.951 63.835 405.951C58.51 405.951 54.0429 404.815 50.4338 402.541C46.7654 400.267 43.8071 396.617 41.5588 391.591C39.2513 386.565 37.5946 380.044 36.5888 372.026C35.5829 364.008 35.08 354.255 35.08 342.768C35.08 331.399 35.6717 322.035 36.855 314.676C38.0383 307.257 39.8725 301.393 42.3575 297.085C44.7833 292.717 47.86 289.665 51.5875 287.93C55.315 286.195 59.7525 285.328 64.9 285.328V302.56C61.705 302.56 59.1017 303.188 57.09 304.444C55.0783 305.641 53.5104 307.765 52.3863 310.817C51.2029 313.868 50.4042 317.997 49.99 323.202C49.5167 328.348 49.28 334.87 49.28 342.768C49.28 351.384 49.3983 358.623 49.635 364.487C49.8717 370.351 50.4633 375.077 51.41 378.667C52.3567 382.257 53.8063 384.83 55.7588 386.386C57.7113 387.942 60.4033 388.719 63.835 388.719C65.8467 388.719 67.8288 388.6 69.7813 388.36C71.6746 388.061 73.2425 387.433 74.485 386.476C75.7275 385.518 76.6742 384.112 77.325 382.257C77.9758 380.403 78.4788 377.89 78.8338 374.718C79.1296 371.487 79.3071 367.509 79.3662 362.782C79.3662 358.055 79.3662 352.341 79.3662 345.64C79.3662 337.502 79.5438 330.382 79.8988 324.279C80.2538 318.116 80.875 312.791 81.7625 308.304C82.65 303.816 84.0108 300.106 85.845 297.175C87.6792 294.243 89.6908 291.909 91.88 290.174C94.01 288.379 96.5542 287.123 99.5125 286.405C102.412 285.687 105.784 285.328 109.63 285.328C113.476 285.328 116.937 285.687 120.014 286.405C123.031 287.123 125.723 288.379 128.09 290.174C130.398 291.969 132.409 294.422 134.125 297.534C135.782 300.585 137.143 304.444 138.208 309.111C139.213 313.778 139.953 319.373 140.426 325.895C140.959 332.357 141.225 339.896 141.225 348.512C141.225 359.281 140.693 368.346 139.628 375.706C138.563 383.005 136.876 388.899 134.569 393.386C132.202 397.874 129.155 401.105 125.428 403.079C121.7 404.994 117.144 405.951 111.76 405.951V388.719C115.31 388.719 118.209 388.121 120.458 386.924C122.647 385.668 124.363 383.514 125.605 380.462C126.848 377.411 127.705 373.312 128.179 368.167C128.593 362.961 128.8 356.41 128.8 348.512C128.8 341.332 128.652 335.229 128.356 330.203C128.001 325.117 127.469 320.869 126.759 317.458C126.049 314.048 125.191 311.355 124.185 309.381C123.179 307.406 121.966 305.91 120.546 304.893C119.126 303.876 117.558 303.248 115.843 303.008C114.068 302.709 112.115 302.56 109.985 302.56C108.033 302.56 106.317 302.709 104.838 303.008C103.299 303.248 101.79 303.846 100.311 304.803C98.7729 305.761 97.6192 307.167 96.85 309.022C96.0808 310.876 95.4596 313.419 94.9863 316.65C94.4538 319.821 94.0988 323.77 93.9212 328.497C93.6846 333.224 93.5663 338.938 93.5663 345.64Z" fill="white"/>
<path d="M142.113 202.04C142.113 213.528 141.343 223.281 139.805 231.298C138.208 239.316 135.486 245.838 131.64 250.864C127.794 255.89 122.647 259.539 116.198 261.813C109.748 264.087 101.643 265.224 91.88 265.224C80.6975 265.224 71.4675 264.087 64.19 261.813C56.8533 259.539 51.0254 255.89 46.7063 250.864C42.3871 245.838 39.3696 239.316 37.6538 231.298C35.9379 223.281 35.08 213.528 35.08 202.04C35.08 193.843 35.6717 186.752 36.855 180.769C38.0383 174.726 39.7542 169.58 42.0025 165.332C44.2508 161.024 46.9725 157.554 50.1675 154.921C53.3625 152.229 56.735 150.134 60.285 148.639C63.7758 147.083 67.8879 146.036 72.6213 145.497C77.3546 144.899 82.3542 144.6 87.62 144.6L93.3 146.036L93.3 247.992C101.11 247.992 107.53 247.214 112.559 245.658C117.529 244.102 121.168 241.53 123.475 237.94C125.783 234.35 127.262 229.623 127.913 223.759C128.504 217.896 128.8 210.656 128.8 202.04C128.8 194.142 128.593 187.62 128.179 182.474C127.705 177.269 126.848 173.14 125.605 170.089C124.363 167.037 122.647 164.913 120.458 163.716C118.209 162.46 115.31 161.832 111.76 161.832L111.76 144.6C117.263 144.6 121.966 145.587 125.871 147.562C129.717 149.476 132.853 152.677 135.279 157.165C137.645 161.652 139.361 167.576 140.426 174.935C141.55 182.235 142.113 191.27 142.113 202.04ZM49.28 202.04C49.28 207.784 49.3983 212.929 49.635 217.477C49.8717 221.964 50.4042 225.913 51.2325 229.324C52.0017 232.674 53.1554 235.546 54.6938 237.94C56.1729 240.333 57.9479 242.278 60.0188 243.773C62.0304 245.209 64.9 246.286 68.6275 247.004C72.2958 247.663 76.7333 247.992 81.94 247.992V161.832C75.0175 161.832 69.6038 162.58 65.6988 164.076C61.7346 165.571 58.4804 167.935 55.9363 171.166C53.3921 174.397 51.6467 178.555 50.7 183.641C49.7533 188.727 49.28 194.86 49.28 202.04Z" fill="white"/>
<path d="M93.5663 61.3119C93.5663 69.4492 93.4479 76.5993 93.2113 82.7621C92.9746 88.9249 92.5013 94.2501 91.7913 98.7376C91.0221 103.165 89.9571 106.875 88.5963 109.867C87.2354 112.798 85.4308 115.132 83.1825 116.867C80.875 118.602 78.0646 119.829 74.7513 120.547C71.3788 121.265 67.74 121.624 63.835 121.624C58.51 121.624 54.0429 120.487 50.4338 118.213C46.7654 115.94 43.8071 112.29 41.5588 107.264C39.2513 102.238 37.5946 95.716 36.5888 87.6984C35.5829 79.6807 35.08 69.9279 35.08 58.4399C35.08 47.0716 35.6717 37.7077 36.855 30.3482C38.0383 22.9289 39.8725 17.0652 42.3575 12.7572C44.7833 8.3894 47.86 5.33789 51.5875 3.60272C55.315 1.86755 59.7525 1 64.9 1V18.2319C61.705 18.2319 59.1017 18.8602 57.09 20.1167C55.0783 21.3134 53.5104 23.4374 52.3863 26.489C51.2029 29.5405 50.4042 33.6689 49.99 38.8745C49.5167 44.0201 49.28 50.5419 49.28 58.4399C49.28 67.0559 49.3983 74.2957 49.635 80.1594C49.8717 86.023 50.4633 90.7499 51.41 94.3398C52.3567 97.9299 53.8063 100.503 55.7588 102.058C57.7113 103.614 60.4033 104.392 63.835 104.392C65.8467 104.392 67.8288 104.272 69.7813 104.033C71.6746 103.734 73.2425 103.105 74.485 102.148C75.7275 101.191 76.6742 99.7847 77.325 97.9299C77.9758 96.075 78.4788 93.562 78.8338 90.3909C79.1296 87.1599 79.3071 83.181 79.3662 78.4541C79.3662 73.7273 79.3662 68.0132 79.3662 61.3119C79.3662 53.1746 79.5438 46.0544 79.8988 39.9514C80.2538 33.7886 80.875 28.4634 81.7625 23.976C82.65 19.4885 84.0108 15.7788 85.845 12.847C87.6792 9.91516 89.6908 7.58167 91.88 5.8465C94.01 4.05145 96.5542 2.79498 99.5125 2.07697C102.412 1.35895 105.784 1 109.63 1C113.476 1 116.937 1.35895 120.014 2.07697C123.031 2.79498 125.723 4.05145 128.09 5.8465C130.398 7.64148 132.409 10.0946 134.125 13.2059C135.782 16.2574 137.143 20.1167 138.208 24.7837C139.213 29.4507 139.953 35.0451 140.426 41.5669C140.959 48.0289 141.225 55.5679 141.225 64.1839C141.225 74.9539 140.693 84.0186 139.628 91.3781C138.563 98.6777 136.876 104.571 134.569 109.059C132.202 113.546 129.155 116.777 125.428 118.752C121.7 120.667 117.144 121.624 111.76 121.624V104.392C115.31 104.392 118.209 103.794 120.458 102.597C122.647 101.34 124.363 99.1863 125.605 96.1348C126.848 93.0834 127.705 88.9848 128.179 83.8391C128.593 78.6336 128.8 72.0819 128.8 64.1839C128.8 57.0039 128.652 50.9009 128.356 45.8749C128.001 40.7891 127.469 36.541 126.759 33.1304C126.049 29.7199 125.191 27.0275 124.185 25.0529C123.179 23.0784 121.966 21.5826 120.546 20.5654C119.126 19.5483 117.558 18.92 115.843 18.6807C114.068 18.3815 112.115 18.2319 109.985 18.2319C108.033 18.2319 106.317 18.3815 104.838 18.6807C103.299 18.92 101.79 19.5184 100.311 20.4757C98.7729 21.433 97.6192 22.8391 96.85 24.694C96.0808 26.5488 95.4596 29.0917 94.9863 32.3227C94.4538 35.4938 94.0988 39.4429 93.9212 44.1697C93.6846 48.8965 93.5663 54.6106 93.5663 61.3119Z" fill="white"/>
<path d="M46.44 583.746C39.34 583.746 33.7192 584.524 29.5775 586.079C25.4358 587.635 22.3 590.208 20.17 593.798C18.04 597.388 16.6792 602.115 16.0875 607.978C15.4958 613.782 15.2 620.992 15.2 629.608L15.2 669.906C15.2 677.564 15.4367 684.026 15.91 689.292C16.3242 694.497 17.2117 698.805 18.5725 702.216C19.9333 705.626 21.8858 708.259 24.43 710.114C26.9742 711.969 30.3467 713.315 34.5475 714.153C38.7483 714.99 43.9254 715.469 50.0788 715.589C56.1729 715.708 63.48 715.768 72 715.768C80.52 715.768 87.8567 715.708 94.01 715.589C100.104 715.409 105.252 714.9 109.453 714.063C113.653 713.225 117.026 711.909 119.57 710.114C122.114 708.259 124.067 705.626 125.428 702.216C126.788 698.805 127.705 694.497 128.179 689.292C128.593 684.026 128.8 677.564 128.8 669.906V629.608C128.8 622.907 128.623 617.133 128.268 612.286C127.913 607.44 127.262 603.311 126.315 599.901C125.368 596.49 124.067 593.738 122.41 591.644C120.753 589.55 118.683 587.934 116.198 586.797C113.653 585.601 110.636 584.793 107.145 584.374C103.595 583.955 99.4533 583.746 94.72 583.746V566.514C100.4 566.514 105.548 566.873 110.163 567.591C114.718 568.309 118.801 569.595 122.41 571.45C125.96 573.245 129.037 575.668 131.64 578.72C134.243 581.771 136.403 585.631 138.119 590.298C139.775 594.965 140.988 600.529 141.758 606.991C142.586 613.453 143 620.992 143 629.608V669.906C143 680.436 142.349 689.322 141.048 696.562C139.805 703.742 137.912 709.665 135.368 714.332C132.764 718.999 129.51 722.619 125.605 725.192C121.7 727.705 117.115 729.56 111.849 730.756C106.583 731.893 100.637 732.551 94.01 732.731C87.3833 732.91 80.0467 733 72 733C63.9533 733 56.6167 732.91 49.99 732.731C43.3633 732.551 37.4171 731.893 32.1513 730.756C26.8854 729.56 22.3 727.705 18.395 725.192C14.49 722.619 11.2654 718.999 8.72125 714.332C6.11792 709.665 4.195 703.742 2.9525 696.562C1.65083 689.322 1 680.436 1 669.906L1 629.608C1 620.992 1.41417 613.453 2.2425 606.991C3.01167 600.529 4.22458 594.965 5.88125 590.298C7.47875 585.631 9.52 581.771 12.005 578.72C14.49 575.668 17.4188 573.245 20.7913 571.45C24.1638 569.595 27.98 568.309 32.24 567.591C36.5 566.873 41.2333 566.514 46.44 566.514V583.746Z" stroke="white" stroke-width="2" mask="url(#path-1-outside-1_61_327)"/>
<path d="M126.138 446.249C126.848 446.429 128.623 447.775 131.463 450.288C133.592 452.083 135.486 454.476 137.143 457.468C138.74 460.46 139.982 464.468 140.87 469.494C141.817 474.461 142.29 481.012 142.29 489.15C142.29 499.979 141.728 509.224 140.604 516.882C139.539 524.541 137.882 530.794 135.634 535.64C133.326 540.487 130.398 544.047 126.848 546.32C123.298 548.534 119.067 549.641 114.156 549.641C109.009 549.641 104.66 549.043 101.11 547.846C97.5008 546.589 94.4833 544.794 92.0575 542.461C89.6317 540.068 87.7383 537.196 86.3775 533.845C85.0167 530.494 83.9813 526.695 83.2713 522.447C82.5613 518.139 82.1175 513.442 81.94 508.356C81.7625 503.27 81.6738 497.855 81.6738 492.111C81.6738 483.914 82.0288 477.063 82.7388 471.559C83.3896 466.054 84.2475 461.566 85.3125 458.096C86.3183 454.566 87.4129 451.903 88.5963 450.108C89.7796 448.313 90.8742 447.027 91.88 446.249C85.2533 446.249 79.6029 446.548 74.9287 447.147C70.2546 447.685 66.3496 448.613 63.2138 449.929C60.0779 451.185 57.5929 452.831 55.7588 454.865C53.8654 456.899 52.4454 459.412 51.4988 462.404C50.5521 465.336 49.9604 468.776 49.7238 472.725C49.4279 476.674 49.28 481.192 49.28 486.278C49.28 494.176 49.4871 500.727 49.9013 505.933C50.2563 511.138 50.9958 515.267 52.12 518.318C53.2442 521.37 54.8121 523.524 56.8238 524.78C58.7763 526.037 61.35 526.665 64.545 526.665V543.897C59.1608 543.897 54.605 542.94 50.8775 541.025C47.15 539.051 44.1325 535.82 41.825 531.332C39.4583 526.785 37.7425 520.831 36.6775 513.472C35.6125 506.112 35.08 497.048 35.08 486.278C35.08 475.747 35.9379 466.832 37.6538 459.532C39.3696 452.232 42.3871 446.339 46.7063 441.851C51.0254 437.304 56.8533 434.043 64.19 432.069C71.4675 430.034 80.6975 429.017 91.88 429.017H140.16V446.249H126.138ZM128.8 486.278C128.8 478.679 128.445 472.336 127.735 467.251C127.025 462.105 125.96 457.976 124.54 454.865C123.12 451.754 121.345 449.54 119.215 448.224C117.085 446.907 114.6 446.249 111.76 446.249C108.92 446.249 106.524 447.027 104.571 448.583C102.56 450.078 100.933 452.621 99.69 456.211C98.4475 459.742 97.56 464.438 97.0275 470.302C96.4358 476.166 96.14 483.406 96.14 492.022C96.14 500.638 96.2879 507.608 96.5838 512.933C96.8796 518.199 97.56 522.267 98.625 525.139C99.69 528.011 101.258 529.956 103.329 530.973C105.4 531.93 108.21 532.409 111.76 532.409C115.31 532.409 118.209 531.9 120.458 530.883C122.647 529.806 124.363 527.652 125.605 524.421C126.848 521.19 127.705 516.553 128.179 510.51C128.593 504.407 128.8 496.33 128.8 486.278Z" stroke="white" stroke-width="2" mask="url(#path-1-outside-1_61_327)"/>
<path d="M93.5663 345.64C93.5663 353.777 93.4479 360.927 93.2113 367.09C92.9746 373.253 92.5013 378.578 91.7913 383.065C91.0221 387.493 89.9571 391.203 88.5963 394.194C87.2354 397.126 85.4308 399.46 83.1825 401.195C80.875 402.93 78.0646 404.156 74.7513 404.874C71.3788 405.592 67.74 405.951 63.835 405.951C58.51 405.951 54.0429 404.815 50.4338 402.541C46.7654 400.267 43.8071 396.617 41.5588 391.591C39.2513 386.565 37.5946 380.044 36.5888 372.026C35.5829 364.008 35.08 354.255 35.08 342.768C35.08 331.399 35.6717 322.035 36.855 314.676C38.0383 307.257 39.8725 301.393 42.3575 297.085C44.7833 292.717 47.86 289.665 51.5875 287.93C55.315 286.195 59.7525 285.328 64.9 285.328V302.56C61.705 302.56 59.1017 303.188 57.09 304.444C55.0783 305.641 53.5104 307.765 52.3863 310.817C51.2029 313.868 50.4042 317.997 49.99 323.202C49.5167 328.348 49.28 334.87 49.28 342.768C49.28 351.384 49.3983 358.623 49.635 364.487C49.8717 370.351 50.4633 375.077 51.41 378.667C52.3567 382.257 53.8063 384.83 55.7588 386.386C57.7113 387.942 60.4033 388.719 63.835 388.719C65.8467 388.719 67.8288 388.6 69.7813 388.36C71.6746 388.061 73.2425 387.433 74.485 386.476C75.7275 385.518 76.6742 384.112 77.325 382.257C77.9758 380.403 78.4788 377.89 78.8338 374.718C79.1296 371.487 79.3071 367.509 79.3662 362.782C79.3662 358.055 79.3662 352.341 79.3662 345.64C79.3662 337.502 79.5438 330.382 79.8988 324.279C80.2538 318.116 80.875 312.791 81.7625 308.304C82.65 303.816 84.0108 300.106 85.845 297.175C87.6792 294.243 89.6908 291.909 91.88 290.174C94.01 288.379 96.5542 287.123 99.5125 286.405C102.412 285.687 105.784 285.328 109.63 285.328C113.476 285.328 116.937 285.687 120.014 286.405C123.031 287.123 125.723 288.379 128.09 290.174C130.398 291.969 132.409 294.422 134.125 297.534C135.782 300.585 137.143 304.444 138.208 309.111C139.213 313.778 139.953 319.373 140.426 325.895C140.959 332.357 141.225 339.896 141.225 348.512C141.225 359.281 140.693 368.346 139.628 375.706C138.563 383.005 136.876 388.899 134.569 393.386C132.202 397.874 129.155 401.105 125.428 403.079C121.7 404.994 117.144 405.951 111.76 405.951V388.719C115.31 388.719 118.209 388.121 120.458 386.924C122.647 385.668 124.363 383.514 125.605 380.462C126.848 377.411 127.705 373.312 128.179 368.167C128.593 362.961 128.8 356.41 128.8 348.512C128.8 341.332 128.652 335.229 128.356 330.203C128.001 325.117 127.469 320.869 126.759 317.458C126.049 314.048 125.191 311.355 124.185 309.381C123.179 307.406 121.966 305.91 120.546 304.893C119.126 303.876 117.558 303.248 115.843 303.008C114.068 302.709 112.115 302.56 109.985 302.56C108.033 302.56 106.317 302.709 104.838 303.008C103.299 303.248 101.79 303.846 100.311 304.803C98.7729 305.761 97.6192 307.167 96.85 309.022C96.0808 310.876 95.4596 313.419 94.9863 316.65C94.4538 319.821 94.0988 323.77 93.9212 328.497C93.6846 333.224 93.5663 338.938 93.5663 345.64Z" stroke="white" stroke-width="2" mask="url(#path-1-outside-1_61_327)"/>
<path d="M142.113 202.04C142.113 213.528 141.343 223.281 139.805 231.298C138.208 239.316 135.486 245.838 131.64 250.864C127.794 255.89 122.647 259.539 116.198 261.813C109.748 264.087 101.643 265.224 91.88 265.224C80.6975 265.224 71.4675 264.087 64.19 261.813C56.8533 259.539 51.0254 255.89 46.7063 250.864C42.3871 245.838 39.3696 239.316 37.6538 231.298C35.9379 223.281 35.08 213.528 35.08 202.04C35.08 193.843 35.6717 186.752 36.855 180.769C38.0383 174.726 39.7542 169.58 42.0025 165.332C44.2508 161.024 46.9725 157.554 50.1675 154.921C53.3625 152.229 56.735 150.134 60.285 148.639C63.7758 147.083 67.8879 146.036 72.6213 145.497C77.3546 144.899 82.3542 144.6 87.62 144.6L93.3 146.036L93.3 247.992C101.11 247.992 107.53 247.214 112.559 245.658C117.529 244.102 121.168 241.53 123.475 237.94C125.783 234.35 127.262 229.623 127.913 223.759C128.504 217.896 128.8 210.656 128.8 202.04C128.8 194.142 128.593 187.62 128.179 182.474C127.705 177.269 126.848 173.14 125.605 170.089C124.363 167.037 122.647 164.913 120.458 163.716C118.209 162.46 115.31 161.832 111.76 161.832L111.76 144.6C117.263 144.6 121.966 145.587 125.871 147.562C129.717 149.476 132.853 152.677 135.279 157.165C137.645 161.652 139.361 167.576 140.426 174.935C141.55 182.235 142.113 191.27 142.113 202.04ZM49.28 202.04C49.28 207.784 49.3983 212.929 49.635 217.477C49.8717 221.964 50.4042 225.913 51.2325 229.324C52.0017 232.674 53.1554 235.546 54.6938 237.94C56.1729 240.333 57.9479 242.278 60.0188 243.773C62.0304 245.209 64.9 246.286 68.6275 247.004C72.2958 247.663 76.7333 247.992 81.94 247.992V161.832C75.0175 161.832 69.6038 162.58 65.6988 164.076C61.7346 165.571 58.4804 167.935 55.9363 171.166C53.3921 174.397 51.6467 178.555 50.7 183.641C49.7533 188.727 49.28 194.86 49.28 202.04Z" stroke="white" stroke-width="2" mask="url(#path-1-outside-1_61_327)"/>
<path d="M93.5663 61.3119C93.5663 69.4492 93.4479 76.5993 93.2113 82.7621C92.9746 88.9249 92.5013 94.2501 91.7913 98.7376C91.0221 103.165 89.9571 106.875 88.5963 109.867C87.2354 112.798 85.4308 115.132 83.1825 116.867C80.875 118.602 78.0646 119.829 74.7513 120.547C71.3788 121.265 67.74 121.624 63.835 121.624C58.51 121.624 54.0429 120.487 50.4338 118.213C46.7654 115.94 43.8071 112.29 41.5588 107.264C39.2513 102.238 37.5946 95.716 36.5888 87.6984C35.5829 79.6807 35.08 69.9279 35.08 58.4399C35.08 47.0716 35.6717 37.7077 36.855 30.3482C38.0383 22.9289 39.8725 17.0652 42.3575 12.7572C44.7833 8.3894 47.86 5.33789 51.5875 3.60272C55.315 1.86755 59.7525 1 64.9 1V18.2319C61.705 18.2319 59.1017 18.8602 57.09 20.1167C55.0783 21.3134 53.5104 23.4374 52.3863 26.489C51.2029 29.5405 50.4042 33.6689 49.99 38.8745C49.5167 44.0201 49.28 50.5419 49.28 58.4399C49.28 67.0559 49.3983 74.2957 49.635 80.1594C49.8717 86.023 50.4633 90.7499 51.41 94.3398C52.3567 97.9299 53.8063 100.503 55.7588 102.058C57.7113 103.614 60.4033 104.392 63.835 104.392C65.8467 104.392 67.8288 104.272 69.7813 104.033C71.6746 103.734 73.2425 103.105 74.485 102.148C75.7275 101.191 76.6742 99.7847 77.325 97.9299C77.9758 96.075 78.4788 93.562 78.8338 90.3909C79.1296 87.1599 79.3071 83.181 79.3662 78.4541C79.3662 73.7273 79.3662 68.0132 79.3662 61.3119C79.3662 53.1746 79.5438 46.0544 79.8988 39.9514C80.2538 33.7886 80.875 28.4634 81.7625 23.976C82.65 19.4885 84.0108 15.7788 85.845 12.847C87.6792 9.91516 89.6908 7.58167 91.88 5.8465C94.01 4.05145 96.5542 2.79498 99.5125 2.07697C102.412 1.35895 105.784 1 109.63 1C113.476 1 116.937 1.35895 120.014 2.07697C123.031 2.79498 125.723 4.05145 128.09 5.8465C130.398 7.64148 132.409 10.0946 134.125 13.2059C135.782 16.2574 137.143 20.1167 138.208 24.7837C139.213 29.4507 139.953 35.0451 140.426 41.5669C140.959 48.0289 141.225 55.5679 141.225 64.1839C141.225 74.9539 140.693 84.0186 139.628 91.3781C138.563 98.6777 136.876 104.571 134.569 109.059C132.202 113.546 129.155 116.777 125.428 118.752C121.7 120.667 117.144 121.624 111.76 121.624V104.392C115.31 104.392 118.209 103.794 120.458 102.597C122.647 101.34 124.363 99.1863 125.605 96.1348C126.848 93.0834 127.705 88.9848 128.179 83.8391C128.593 78.6336 128.8 72.0819 128.8 64.1839C128.8 57.0039 128.652 50.9009 128.356 45.8749C128.001 40.7891 127.469 36.541 126.759 33.1304C126.049 29.7199 125.191 27.0275 124.185 25.0529C123.179 23.0784 121.966 21.5826 120.546 20.5654C119.126 19.5483 117.558 18.92 115.843 18.6807C114.068 18.3815 112.115 18.2319 109.985 18.2319C108.033 18.2319 106.317 18.3815 104.838 18.6807C103.299 18.92 101.79 19.5184 100.311 20.4757C98.7729 21.433 97.6192 22.8391 96.85 24.694C96.0808 26.5488 95.4596 29.0917 94.9863 32.3227C94.4538 35.4938 94.0988 39.4429 93.9212 44.1697C93.6846 48.8965 93.5663 54.6106 93.5663 61.3119Z" stroke="white" stroke-width="2" mask="url(#path-1-outside-1_61_327)"/>
</svg>
