<svg width="170" height="90" viewBox="0 0 170 90" fill="none" xmlns="http://www.w3.org/2000/svg">
<path d="M27.6322 63.5851H7.97647L4.87293 69.484H1.25214L15.7353 43.7433H19.8734L34.3565 69.484H30.7357L27.6322 63.5851ZM26.0804 60.9037L17.8043 45.8883L9.52823 60.9037H26.0804Z" fill="white"/>
<path d="M56.0813 69.484V58.7587C56.0813 57.5633 55.9951 56.5578 55.8227 55.7422C55.6502 54.9155 55.3054 54.2507 54.7881 53.748C54.2709 53.2452 53.5381 52.8821 52.5898 52.6587C51.6415 52.4352 50.3915 52.3235 48.8397 52.3235C47.1586 52.3235 45.7793 52.452 44.7017 52.7089C43.6348 52.9659 42.7943 53.329 42.18 53.7982C41.5658 54.2675 41.1401 54.8317 40.9031 55.4908C40.6768 56.15 40.5636 56.8818 40.5636 57.6861V69.484H37.4601V50.1784H40.5636V53.396C40.7899 52.8486 41.1132 52.3794 41.5335 51.9883C41.9537 51.5861 42.4279 51.2454 42.9559 50.9661C43.4839 50.6868 44.0551 50.4633 44.6693 50.2958C45.2836 50.117 45.8978 49.9829 46.512 49.8936C47.1263 49.793 47.719 49.726 48.2901 49.6924C48.872 49.6589 49.4001 49.6422 49.8742 49.6422C51.2536 49.6422 52.4389 49.7316 53.4304 49.9103C54.4325 50.0891 55.2785 50.3516 55.9681 50.6979C56.6686 51.0443 57.2289 51.4744 57.6492 51.9883C58.0695 52.5023 58.3928 53.1 58.6191 53.7815C58.8561 54.4518 59.0124 55.2059 59.0878 56.0438C59.1633 56.8706 59.201 57.7755 59.201 58.7587L59.1848 69.484H56.0813Z" fill="white"/>
<path d="M81.4592 60.9037C81.4592 62.5461 81.3298 63.9202 81.0712 65.0263C80.8126 66.1212 80.3762 66.9982 79.7619 67.6573C79.1585 68.3165 78.361 68.7857 77.3696 69.065C76.3782 69.3443 75.1551 69.484 73.7003 69.484C72.2886 69.484 71.1033 69.3723 70.1442 69.1488C69.1851 68.9254 68.4092 68.5455 67.8165 68.0093C67.2238 67.473 66.7982 66.758 66.5396 65.8642C66.2809 64.9704 66.1516 63.8532 66.1516 62.5125V52.8262H62.3207V50.1784H66.1516V44.8996H69.2552V50.1784H80.9419V52.8262H69.2552V62.5125C69.2552 63.5851 69.3306 64.4118 69.4815 64.9928C69.6431 65.5737 69.8963 65.9983 70.2412 66.2664C70.586 66.5345 71.0386 66.6909 71.599 66.7356C72.1701 66.7803 72.8652 66.8027 73.6842 66.8027C74.3307 66.8027 74.9072 66.7915 75.4137 66.7691C75.931 66.7468 76.3782 66.6798 76.7554 66.568C77.1433 66.4451 77.472 66.2664 77.7414 66.0318C78.0108 65.786 78.2263 65.4452 78.388 65.0095C78.5604 64.5738 78.6843 64.0264 78.7597 63.3672C78.8352 62.6969 78.8729 61.8757 78.8729 60.9037H81.4592Z" fill="white"/>
<path d="M85.5972 59.6971C85.5972 57.7197 85.802 56.0829 86.2115 54.787C86.621 53.491 87.2783 52.4632 88.1835 51.7034C89.0887 50.9437 90.2633 50.4131 91.7073 50.1114C93.1513 49.7986 94.9078 49.6422 96.9768 49.6422C99.0459 49.6422 100.802 49.7986 102.246 50.1114C103.69 50.4131 104.865 50.9437 105.77 51.7034C106.675 52.4632 107.333 53.491 107.742 54.787C108.152 56.0829 108.356 57.7197 108.356 59.6971C108.356 61.6746 108.152 63.3169 107.742 64.6241C107.333 65.9312 106.675 66.9702 105.77 67.7411C104.865 68.512 103.69 69.0594 102.246 69.3834C100.802 69.6962 99.0459 69.8527 96.9768 69.8527C94.9078 69.8527 93.1513 69.6962 91.7073 69.3834C90.2633 69.0594 89.0887 68.512 88.1835 67.7411C87.2783 66.9702 86.621 65.9312 86.2115 64.6241C85.802 63.3169 85.5972 61.6746 85.5972 59.6971ZM88.7008 59.6971C88.7008 60.7697 88.7385 61.7026 88.8139 62.4958C88.8893 63.289 89.0294 63.9705 89.2342 64.5403C89.4497 65.1101 89.746 65.5737 90.1232 65.9312C90.5004 66.2887 90.9961 66.5736 91.6103 66.7859C92.2246 66.9982 92.9681 67.1434 93.841 67.2216C94.7246 67.2998 95.7699 67.3389 96.9768 67.3389C98.0114 67.3389 98.9327 67.3166 99.7409 67.2719C100.56 67.216 101.271 67.0987 101.875 66.92C102.489 66.7412 103.011 66.4898 103.443 66.1658C103.874 65.8307 104.218 65.3782 104.477 64.8084C104.746 64.2386 104.94 63.5404 105.059 62.7136C105.188 61.8757 105.253 60.8702 105.253 59.6971C105.253 58.5464 105.188 57.5688 105.059 56.7644C104.94 55.9489 104.746 55.2674 104.477 54.7199C104.218 54.1725 103.874 53.7424 103.443 53.4296C103.011 53.1056 102.489 52.8654 101.875 52.7089C101.271 52.5414 100.56 52.4352 99.7409 52.3905C98.9327 52.3458 98.0114 52.3235 96.9768 52.3235C95.9423 52.3235 95.0156 52.3458 94.1966 52.3905C93.3884 52.4352 92.6772 52.5414 92.0629 52.7089C91.4594 52.8654 90.9422 53.1056 90.5112 53.4296C90.0801 53.7424 89.7299 54.1725 89.4605 54.7199C89.2018 55.2674 89.0079 55.9489 88.8786 56.7644C88.76 57.5688 88.7008 58.5464 88.7008 59.6971ZM101.255 46.4246H103.701L98.5286 38.3806H95.4251L90.2525 46.4246H92.5789L96.9768 40.5257L101.255 46.4246Z" fill="white"/>
<path d="M131.116 69.484V58.7587C131.116 57.5633 131.03 56.5578 130.857 55.7422C130.685 54.9155 130.34 54.2507 129.823 53.748C129.305 53.2452 128.573 52.8821 127.624 52.6587C126.676 52.4352 125.426 52.3235 123.874 52.3235C122.193 52.3235 120.814 52.452 119.736 52.7089C118.669 52.9659 117.829 53.329 117.215 53.7982C116.6 54.2675 116.175 54.8317 115.938 55.4908C115.711 56.15 115.598 56.8818 115.598 57.6861V69.484H112.495V50.1784H115.598V53.396C115.824 52.8486 116.148 52.3794 116.568 51.9883C116.988 51.5861 117.462 51.2454 117.99 50.9661C118.518 50.6868 119.09 50.4633 119.704 50.2958C120.318 50.117 120.932 49.9829 121.547 49.8936C122.161 49.793 122.753 49.726 123.325 49.6924C123.907 49.6589 124.435 49.6422 124.909 49.6422C126.288 49.6422 127.473 49.7316 128.465 49.9103C129.467 50.0891 130.313 50.3516 131.003 50.6979C131.703 51.0443 132.263 51.4744 132.684 51.9883C133.104 52.5023 133.427 53.1 133.654 53.7815C133.891 54.4518 134.047 55.2059 134.122 56.0438C134.198 56.8706 134.235 57.7755 134.235 58.7587L134.219 69.484H131.116Z" fill="white"/>
<path d="M139.424 50.1784H142.528V69.484H139.424V50.1784ZM142.528 46.9609H139.424V43.7433H142.528V46.9609Z" fill="white"/>
<path d="M147.183 59.6971C147.183 57.7197 147.388 56.0829 147.797 54.787C148.207 53.491 148.864 52.4632 149.769 51.7034C150.675 50.9437 151.849 50.4131 153.293 50.1114C154.737 49.7986 156.494 49.6422 158.563 49.6422C160.632 49.6422 162.388 49.7986 163.832 50.1114C165.276 50.4131 166.451 50.9437 167.356 51.7034C168.261 52.4632 168.919 53.491 169.328 54.787C169.738 56.0829 169.942 57.7197 169.942 59.6971C169.942 61.6746 169.738 63.3169 169.328 64.6241C168.919 65.9312 168.261 66.9702 167.356 67.7411C166.451 68.512 165.276 69.0594 163.832 69.3834C162.388 69.6962 160.632 69.8527 158.563 69.8527C156.494 69.8527 154.737 69.6962 153.293 69.3834C151.849 69.0594 150.675 68.512 149.769 67.7411C148.864 66.9702 148.207 65.9312 147.797 64.6241C147.388 63.3169 147.183 61.6746 147.183 59.6971ZM150.287 59.6971C150.287 60.7697 150.324 61.7026 150.4 62.4958C150.475 63.289 150.615 63.9705 150.82 64.5403C151.036 65.1101 151.332 65.5737 151.709 65.9312C152.086 66.2887 152.582 66.5736 153.196 66.7859C153.81 66.9982 154.554 67.1434 155.427 67.2216C156.31 67.2998 157.356 67.3389 158.563 67.3389C159.597 67.3389 160.519 67.3166 161.327 67.2719C162.146 67.216 162.857 67.0987 163.46 66.92C164.075 66.7412 164.597 66.4898 165.028 66.1658C165.459 65.8307 165.804 65.3782 166.063 64.8084C166.332 64.2386 166.526 63.5404 166.645 62.7136C166.774 61.8757 166.839 60.8702 166.839 59.6971C166.839 58.5464 166.774 57.5688 166.645 56.7644C166.526 55.9489 166.332 55.2674 166.063 54.7199C165.804 54.1725 165.459 53.7424 165.028 53.4296C164.597 53.1056 164.075 52.8654 163.46 52.7089C162.857 52.5414 162.146 52.4352 161.327 52.3905C160.519 52.3458 159.597 52.3235 158.563 52.3235C157.528 52.3235 156.601 52.3458 155.782 52.3905C154.974 52.4352 154.263 52.5414 153.649 52.7089C153.045 52.8654 152.528 53.1056 152.097 53.4296C151.666 53.7424 151.316 54.1725 151.046 54.7199C150.788 55.2674 150.594 55.9489 150.464 56.7644C150.346 57.5688 150.287 58.5464 150.287 59.6971Z" fill="white"/>
<path d="M23.2383 16.2564C25.4782 16.2564 27.3992 16.3486 29.0011 16.5328C30.6031 16.717 31.9499 16.9933 33.0415 17.3617C34.1473 17.716 35.0263 18.1623 35.6784 18.7008C36.3305 19.2393 36.8338 19.8557 37.1882 20.55C37.5426 21.2302 37.7695 21.9954 37.8687 22.8456C37.9821 23.6958 38.0388 24.6169 38.0388 25.6088C38.0388 26.6007 37.9467 27.5359 37.7624 28.4145C37.5923 29.2788 37.2804 30.0724 36.8267 30.7951C36.3731 31.5177 35.7564 32.1625 34.9767 32.7293C34.1969 33.2961 33.2045 33.7779 31.9995 34.1746C30.7945 34.5714 29.3414 34.869 27.6402 35.0674C25.9531 35.2799 23.9755 35.3862 21.7072 35.3862H16.2633C14.2218 35.3862 12.4356 35.3083 10.9045 35.1524C9.37337 34.9965 8.05493 34.7627 6.94914 34.451C5.84335 34.1251 4.92895 33.7212 4.20593 33.2394C3.48292 32.7435 2.90167 32.1696 2.46219 31.5177C2.03688 30.8517 1.73917 30.1007 1.56905 29.2647C1.39893 28.4145 1.31387 27.4792 1.31387 26.459H5.39678C5.39678 27.7343 5.58108 28.7333 5.94968 29.456C6.31827 30.1787 6.92788 30.7242 7.77848 31.0926C8.62909 31.4469 9.74197 31.6736 11.1171 31.7728C12.5064 31.8578 14.2218 31.9003 16.2633 31.9003H21.7072C24.0889 31.9003 26.0665 31.787 27.6402 31.5603C29.2138 31.3335 30.4684 30.9722 31.4041 30.4762C32.3398 29.9803 32.999 29.3355 33.3818 28.542C33.7645 27.7343 33.9559 26.7566 33.9559 25.6088C33.9559 24.461 33.8212 23.5045 33.5519 22.7393C33.2967 21.9741 32.7792 21.3648 31.9995 20.9114C31.234 20.4579 30.1495 20.1391 28.746 19.9549C27.3425 19.7565 25.5066 19.6573 23.2383 19.6573H17.6243C15.1291 19.6573 12.9885 19.5652 11.2022 19.381C9.43008 19.1968 7.94152 18.9346 6.73649 18.5945C5.53146 18.2403 4.56744 17.8081 3.84442 17.298C3.12141 16.7737 2.56851 16.1785 2.18574 15.5125C1.81714 14.8465 1.57614 14.1097 1.46272 13.302C1.34931 12.4801 1.2926 11.5945 1.2926 10.645C1.2926 9.65314 1.37766 8.73207 1.54778 7.88186C1.73208 7.03165 2.06524 6.26646 2.54725 5.58629C3.02926 4.89195 3.68848 4.27555 4.52491 3.73708C5.36134 3.19862 6.43169 2.75225 7.73595 2.398C9.05439 2.02957 10.6351 1.75326 12.4781 1.56904C14.3211 1.38483 16.4901 1.29272 18.9852 1.29272H23.0681C25.1096 1.29272 26.8959 1.37066 28.427 1.52653C29.9581 1.66823 31.2765 1.90204 32.3823 2.22796C33.4881 2.5397 34.4025 2.93647 35.1255 3.41825C35.8627 3.88587 36.4439 4.45268 36.8692 5.11867C37.3087 5.7705 37.6135 6.51444 37.7837 7.35048C37.9538 8.18652 38.0388 9.11467 38.0388 10.1349H33.9559C33.9559 8.85961 33.7716 7.86061 33.403 7.13793C33.0344 6.41525 32.4248 5.87678 31.5742 5.52253C30.7236 5.1541 29.6036 4.92738 28.2143 4.84236C26.825 4.74317 25.1096 4.69357 23.0681 4.69357H18.9852C16.2633 4.69357 14.0234 4.79276 12.2654 4.99114C10.5075 5.17536 9.11819 5.49418 8.09746 5.94763C7.07673 6.40108 6.36789 7.0104 5.97094 7.77559C5.57399 8.54078 5.37552 9.49726 5.37552 10.645C5.37552 11.3536 5.42514 11.9841 5.52437 12.5368C5.62361 13.0894 5.82209 13.5783 6.1198 14.0034C6.43169 14.4143 6.86408 14.7615 7.41698 15.0449C7.96987 15.3283 8.69998 15.5621 9.60729 15.7463C10.5146 15.9305 11.6204 16.0651 12.9247 16.1502C14.2431 16.221 15.8096 16.2564 17.6243 16.2564H23.2383Z" fill="white"/>
<path d="M67.8738 31.2627C67.8313 31.4327 67.5123 31.8578 66.9169 32.538C66.4916 33.0481 65.9245 33.5016 65.2157 33.8983C64.5069 34.2809 63.557 34.5785 62.3662 34.7911C61.1895 35.0178 59.6371 35.1311 57.7091 35.1311C55.1431 35.1311 52.9528 34.9965 51.1382 34.7273C49.3236 34.4722 47.8421 34.0755 46.6938 33.537C45.5454 32.9844 44.7019 32.2829 44.1632 31.4327C43.6387 30.5825 43.3764 29.5693 43.3764 28.3932C43.3764 27.1604 43.5182 26.1189 43.8017 25.2687C44.0994 24.4043 44.5247 23.6816 45.0776 23.1006C45.6447 22.5197 46.3252 22.0662 47.1191 21.7403C47.913 21.4144 48.8132 21.1664 49.8197 20.9964C50.8405 20.8263 51.9534 20.7201 53.1584 20.6775C54.3634 20.635 55.6464 20.6138 57.0073 20.6138C58.9496 20.6138 60.5728 20.6988 61.877 20.8688C63.1813 21.0247 64.2446 21.2302 65.0668 21.4852C65.9033 21.7261 66.5341 21.9883 66.9594 22.2717C67.3848 22.5551 67.6895 22.8172 67.8738 23.0581C67.8738 21.4711 67.8029 20.1178 67.6612 18.9984C67.5336 17.8789 67.3139 16.9437 67.002 16.1927C66.7042 15.4417 66.3144 14.8465 65.8324 14.4072C65.3504 13.9538 64.7549 13.6137 64.0461 13.387C63.3514 13.1603 62.5363 13.0186 61.6006 12.9619C60.6649 12.891 59.5946 12.8556 58.3896 12.8556C56.5182 12.8556 54.9659 12.9052 53.7325 13.0044C52.4992 13.0894 51.521 13.2665 50.7979 13.5358C50.0749 13.805 49.5646 14.1805 49.2669 14.6623C48.9691 15.1299 48.8203 15.7463 48.8203 16.5115H44.7374C44.7374 15.222 44.9642 14.1309 45.4179 13.2382C45.8857 12.3455 46.6512 11.6228 47.7145 11.0702C48.7919 10.5033 50.2025 10.0924 51.9463 9.83735C53.69 9.58229 55.8378 9.45475 58.3896 9.45475C60.8847 9.45475 62.997 9.66022 64.7266 10.0712C66.4562 10.4821 67.8526 11.2048 68.9158 12.2392C69.9933 13.2736 70.7659 14.6694 71.2337 16.4265C71.7158 18.1694 71.9568 20.38 71.9568 23.0581V34.621H67.8738V31.2627ZM58.3896 31.9003C60.19 31.9003 61.6927 31.8153 62.8978 31.6453C64.117 31.4752 65.0952 31.2202 65.8324 30.8801C66.5696 30.54 67.0941 30.1149 67.406 29.6048C67.7179 29.0946 67.8738 28.4995 67.8738 27.8193C67.8738 27.1391 67.6896 26.5653 67.321 26.0976C66.9665 25.6159 66.364 25.2262 65.5134 24.9286C64.677 24.631 63.5641 24.4185 62.1748 24.2909C60.7855 24.1492 59.0701 24.0784 57.0286 24.0784C54.9871 24.0784 53.3356 24.1138 52.0739 24.1847C50.8263 24.2555 49.8623 24.4185 49.1818 24.6735C48.5013 24.9286 48.0406 25.3041 47.7996 25.8001C47.5727 26.296 47.4593 26.9691 47.4593 27.8193C47.4593 28.6695 47.5798 29.3639 47.8208 29.9023C48.076 30.4266 48.5864 30.8376 49.3519 31.1351C50.1175 31.4327 51.2162 31.6382 52.648 31.7515C54.0941 31.8507 56.0079 31.9003 58.3896 31.9003Z" fill="white"/>
<path d="M101.919 34.621V21.0176C101.919 19.5014 101.806 18.2261 101.579 17.1917C101.352 16.1431 100.899 15.3 100.218 14.6623C99.5376 14.0246 98.5736 13.5641 97.326 13.2807C96.0785 12.9973 94.4339 12.8556 92.3925 12.8556C90.1809 12.8556 88.3663 13.0186 86.9486 13.3445C85.5451 13.6704 84.4393 14.1309 83.6312 14.7261C82.8232 15.3212 82.2632 16.0368 81.9513 16.8728C81.6536 17.7089 81.5047 18.637 81.5047 19.6573V34.621H77.4219V10.1349H81.5047V14.2159C81.8025 13.5216 82.2277 12.9264 82.7806 12.4305C83.3335 11.9204 83.9573 11.4882 84.652 11.1339C85.3466 10.7797 86.098 10.4963 86.9061 10.2837C87.7142 10.057 88.5222 9.88694 89.3303 9.77358C90.1384 9.64605 90.9181 9.56103 91.6695 9.51852C92.435 9.47601 93.1297 9.45475 93.7535 9.45475C95.5681 9.45475 97.1276 9.56812 98.4318 9.79484C99.7503 10.0216 100.863 10.3546 101.77 10.7938C102.692 11.2331 103.429 11.7787 103.982 12.4305C104.535 13.0823 104.96 13.8404 105.258 14.7048C105.57 15.555 105.775 16.5115 105.875 17.5743C105.974 18.6229 106.023 19.7707 106.023 21.0176L106.002 34.621H101.919Z" fill="white"/>
<path d="M135.306 23.7383C135.306 25.8213 135.136 27.5643 134.795 28.9671C134.455 30.3558 133.881 31.4681 133.073 32.3042C132.279 33.1402 131.23 33.7354 129.926 34.0896C128.621 34.4439 127.012 34.621 125.098 34.621C123.241 34.621 121.682 34.4793 120.42 34.1959C119.158 33.9125 118.138 33.4307 117.358 32.7506C116.578 32.0704 116.018 31.1635 115.678 30.0299C115.338 28.8963 115.168 27.4792 115.168 25.7788V13.4933H110.128V10.1349H115.168V3.43951H119.25V10.1349H134.625V13.4933H119.25V25.7788C119.25 27.1392 119.35 28.1877 119.548 28.9246C119.761 29.6614 120.094 30.1999 120.548 30.54C121.001 30.8801 121.597 31.0785 122.334 31.1351C123.085 31.1918 124 31.2202 125.077 31.2202C125.928 31.2202 126.686 31.206 127.352 31.1777C128.033 31.1493 128.621 31.0643 129.117 30.9226C129.628 30.7667 130.06 30.54 130.415 30.2424C130.769 29.9307 131.053 29.4985 131.265 28.9458C131.492 28.3932 131.655 27.6989 131.754 26.8628C131.854 26.0126 131.903 24.9711 131.903 23.7383H135.306Z" fill="white"/>
<path d="M138.708 22.2079C138.708 19.6998 138.977 17.6239 139.516 15.9801C140.055 14.3364 140.92 13.0327 142.11 12.0692C143.301 11.1056 144.847 10.4325 146.746 10.0499C148.646 9.65314 150.957 9.45475 153.679 9.45475C156.401 9.45475 158.712 9.65314 160.611 10.0499C162.511 10.4325 164.056 11.1056 165.247 12.0692C166.438 13.0327 167.303 14.3364 167.841 15.9801C168.38 17.6239 168.649 19.6998 168.649 22.2079C168.649 24.716 168.38 26.7991 167.841 28.457C167.303 30.1149 166.438 31.4327 165.247 32.4105C164.056 33.3882 162.511 34.0825 160.611 34.4935C158.712 34.8902 156.401 35.0886 153.679 35.0886C150.957 35.0886 148.646 34.8902 146.746 34.4935C144.847 34.0825 143.301 33.3882 142.11 32.4105C140.92 31.4327 140.055 30.1149 139.516 28.457C138.977 26.7991 138.708 24.716 138.708 22.2079ZM142.791 22.2079C142.791 23.5683 142.841 24.7515 142.94 25.7576C143.039 26.7636 143.223 27.628 143.493 28.3507C143.776 29.0734 144.166 29.6614 144.662 30.1149C145.158 30.5683 145.811 30.9297 146.619 31.1989C147.427 31.4681 148.405 31.6524 149.553 31.7515C150.716 31.8507 152.091 31.9003 153.679 31.9003C155.04 31.9003 156.252 31.872 157.315 31.8153C158.393 31.7445 159.328 31.5957 160.122 31.3689C160.93 31.1422 161.618 30.8234 162.185 30.4125C162.752 29.9874 163.206 29.4135 163.546 28.6908C163.9 27.9681 164.155 27.0825 164.311 26.0339C164.481 24.9711 164.567 23.6958 164.567 22.2079C164.567 20.7484 164.481 19.5085 164.311 18.4882C164.155 17.4538 163.9 16.5894 163.546 15.8951C163.206 15.2008 162.752 14.6552 162.185 14.2584C161.618 13.8475 160.93 13.5429 160.122 13.3445C159.328 13.1319 158.393 12.9973 157.315 12.9406C156.252 12.8839 155.04 12.8556 153.679 12.8556C152.318 12.8556 151.099 12.8839 150.021 12.9406C148.958 12.9973 148.022 13.1319 147.214 13.3445C146.42 13.5429 145.74 13.8475 145.173 14.2584C144.606 14.6552 144.145 15.2008 143.79 15.8951C143.45 16.5894 143.195 17.4538 143.025 18.4882C142.869 19.5085 142.791 20.7484 142.791 22.2079Z" fill="white"/>
<path fill-rule="evenodd" clip-rule="evenodd" d="M6.73676 18.5947C5.53173 18.2404 4.56771 17.8082 3.84469 17.2981C3.12168 16.7738 2.56878 16.1787 2.18601 15.5127C1.81741 14.8467 1.57641 14.1098 1.46299 13.3021C1.34958 12.4802 1.29287 11.5946 1.29287 10.6452C1.29287 9.65328 1.37793 8.73222 1.54805 7.88201C1.73235 7.0318 2.06551 6.26661 2.54752 5.58644C3.02953 4.8921 3.68875 4.2757 4.52518 3.73723C5.36161 3.19876 6.43196 2.7524 7.73622 2.39815C9.05466 2.02972 10.6354 1.7534 12.4784 1.56919C14.3213 1.38498 16.4904 1.29287 18.9855 1.29287H23.0684C25.1099 1.29287 26.8961 1.37081 28.4272 1.52668C29.9583 1.66838 31.2768 1.90219 32.3826 2.2281C33.4884 2.53985 34.4028 2.93661 35.1258 3.4184C35.863 3.88602 36.4442 4.45282 36.8695 5.11882C37.309 5.77065 37.6138 6.51459 37.7839 7.35063C37.8792 7.81892 37.9478 8.31611 37.9897 8.8422C38.0227 9.25533 38.0391 9.68629 38.0391 10.1351H33.9562C33.9562 8.85975 33.7719 7.86075 33.4033 7.13808C33.0347 6.4154 32.4251 5.87693 31.5745 5.52267C30.7239 5.15425 29.6039 4.92753 28.2146 4.8425C26.8253 4.74331 25.1099 4.69372 23.0684 4.69372H18.9855C16.2636 4.69372 14.0236 4.79291 12.2657 4.99129C10.5078 5.1755 9.11846 5.49433 8.09773 5.94778C7.077 6.40122 6.36816 7.01054 5.97121 7.77573C5.57426 8.54092 5.37579 9.49741 5.37579 10.6452C5.37579 11.3537 5.42541 11.9843 5.52464 12.5369C5.62388 13.0896 5.82236 13.5784 6.12007 14.0035C6.43196 14.4145 6.86435 14.7616 7.41725 15.045C7.97014 15.3284 8.70024 15.5623 9.60756 15.7465C10.5149 15.9307 11.6207 16.0653 12.9249 16.1503C14.2434 16.2212 15.8099 16.2566 17.6245 16.2566H23.2385C25.4785 16.2566 27.3994 16.3487 29.0014 16.5329C30.6034 16.7171 31.9502 16.9934 33.0418 17.3619C34.1476 17.7161 35.0265 18.1625 35.6787 18.7009C36.3308 19.2394 36.8341 19.8558 37.1885 20.5502C37.5429 21.2303 37.7698 21.9955 37.869 22.8457C37.9824 23.6959 38.0391 24.617 38.0391 25.6089C38.0391 26.6008 37.947 27.5361 37.7627 28.4146C37.5925 29.279 37.2807 30.0725 36.827 30.7952C36.3733 31.5179 35.7566 32.1626 34.9769 32.7294C34.1972 33.2962 33.2048 33.778 31.9998 34.1748C30.7948 34.5716 29.3416 34.8691 27.6404 35.0675C25.9534 35.2801 23.9757 35.3863 21.7074 35.3863H16.2636C14.2221 35.3863 12.4358 35.3084 10.9047 35.1525C9.37364 34.9967 8.0552 34.7629 6.94941 34.4511C5.84362 34.1252 4.92922 33.7214 4.2062 33.2396C3.48319 32.7436 2.90194 32.1697 2.46246 31.5179C2.03715 30.8519 1.73944 30.1009 1.56932 29.2648C1.47378 28.7874 1.40507 28.2831 1.36319 27.752C1.33049 27.3374 1.31414 26.9064 1.31414 26.4591H5.39705C5.39705 27.7344 5.58135 28.7335 5.94995 29.4561C6.31854 30.1788 6.92815 30.7244 7.77875 31.0928C8.62936 31.447 9.74224 31.6738 11.1174 31.7729C12.5067 31.858 14.2221 31.9005 16.2636 31.9005H21.7074C24.0891 31.9005 26.0668 31.7871 27.6404 31.5604C29.2141 31.3337 30.4687 30.9723 31.4044 30.4764C32.34 29.9804 32.9993 29.3357 33.382 28.5421C33.7648 27.7344 33.9562 26.7567 33.9562 25.6089C33.9562 24.4611 33.8215 23.5046 33.5522 22.7395C33.297 21.9743 32.7795 21.3649 31.9998 20.9115C31.2342 20.4581 30.1497 20.1392 28.7462 19.955C27.3427 19.7566 25.5068 19.6574 23.2385 19.6574H17.6245C15.1294 19.6574 12.9887 19.5653 11.2024 19.3811C9.43035 19.1969 7.94179 18.9348 6.73676 18.5947ZM32.2157 27.9842C32.4954 27.392 32.6633 26.6153 32.6633 25.6089C32.6633 24.5516 32.5379 23.7518 32.3326 23.1687L32.3291 23.1586L32.3257 23.1485C32.182 22.7176 31.8921 22.3445 31.3498 22.0291L31.3454 22.0265L31.3409 22.0239C30.7884 21.6966 29.8989 21.4103 28.578 21.2369L28.5716 21.2361L28.5653 21.2352C27.2463 21.0487 25.4776 20.9503 23.2385 20.9503H17.6245C15.1008 20.9503 12.9134 20.8573 11.0698 20.6672L11.0688 20.6671C9.25119 20.4781 7.6846 20.2055 6.3856 19.8389L6.37885 19.837L6.37211 19.8351C5.08328 19.4562 3.97576 18.9729 3.09935 18.3545L3.0925 18.3497L3.08572 18.3447C2.23885 17.7306 1.55237 17.0047 1.06508 16.1569L1.05988 16.1478L1.05483 16.1387C0.604312 15.3247 0.316505 14.4349 0.182682 13.4819L0.182468 13.4804L0.182258 13.4788C0.0597073 12.5908 0 11.6455 0 10.6452C0 9.58002 0.0912929 8.573 0.280312 7.62834L0.282338 7.61821L0.284527 7.60812C0.503656 6.59722 0.903851 5.67127 1.48905 4.84401C2.08282 3.99034 2.87315 3.26314 3.82535 2.65014C4.80394 2.02016 6.00518 1.52897 7.39279 1.15172C8.80208 0.758279 10.4587 0.471749 12.3498 0.282729C14.2472 0.0930735 16.4611 0 18.9855 0H23.0684C25.1379 0 26.9677 0.0788012 28.5523 0.239857C30.1354 0.386662 31.5362 0.631471 32.7407 0.985812C33.9286 1.32132 34.9696 1.76308 35.8306 2.33444C36.7003 2.88833 37.4165 3.57787 37.9504 4.40934C38.4877 5.21014 38.8509 6.11022 39.0508 7.09283C39.2412 8.02828 39.332 9.04448 39.332 10.1351V11.4279H32.6633V10.1351C32.6633 8.95883 32.4892 8.19135 32.2516 7.7255C32.0413 7.31314 31.6857 6.9695 31.0774 6.71618L31.069 6.71267L31.0606 6.70904C30.3987 6.42233 29.4427 6.21295 28.1356 6.13296L28.1291 6.13256L28.1225 6.13209C26.7743 6.03584 25.0919 5.98659 23.0684 5.98659H18.9855C16.2892 5.98659 14.1022 6.08512 12.4107 6.27601L12.4056 6.27659L12.4004 6.27712C10.7084 6.45443 9.46912 6.75326 8.62261 7.12931C7.78983 7.49926 7.34524 7.93469 7.11885 8.37108C6.84364 8.90161 6.66866 9.63875 6.66866 10.6452C6.66866 11.296 6.71444 11.8477 6.79716 12.3084C6.86418 12.6816 6.99051 12.986 7.16465 13.241C7.33822 13.463 7.60344 13.6877 8.00699 13.8945C8.4171 14.1047 9.02243 14.3084 9.8648 14.4794C10.6955 14.6481 11.7373 14.777 13.0017 14.8597C14.2888 14.9287 15.8286 14.9637 17.6245 14.9637H23.2385C25.5104 14.9637 27.4834 15.057 29.1491 15.2485C30.8042 15.4388 32.2432 15.7289 33.4457 16.1337C34.6495 16.5202 35.6874 17.0315 36.5019 17.704C37.2771 18.3442 37.8964 19.0949 38.3376 19.9576C38.7696 20.7883 39.0361 21.7026 39.1519 22.6851C39.273 23.597 39.332 24.5724 39.332 25.6089C39.332 26.6779 39.2329 27.7001 39.0296 28.6721C38.8296 29.6837 38.4611 30.6237 37.922 31.4826C37.37 32.362 36.6331 33.1239 35.7371 33.7752C34.8209 34.4413 33.6987 34.9766 32.4041 35.4028C31.0949 35.8339 29.5536 36.1458 27.7963 36.351C26.0426 36.5716 24.0106 36.6792 21.7074 36.6792H16.2636C14.1915 36.6792 12.3598 36.6002 10.7738 36.4388C9.19162 36.2777 7.79581 36.033 6.5986 35.6955L6.59124 35.6934L6.5839 35.6913C5.39151 35.3398 4.34925 34.8885 3.48928 34.3155L3.48204 34.3106L3.47487 34.3057C2.63314 33.7283 1.9308 33.042 1.39048 32.2406L1.38148 32.2273L1.37281 32.2137C0.855417 31.4035 0.50167 30.5019 0.302411 29.5226L0.301991 29.5206L0.301578 29.5185C0.112123 28.5717 0.0212664 27.5501 0.0212664 26.4591V25.1663H6.68992V26.4591C6.68992 27.6354 6.86406 28.4029 7.10166 28.8687C7.31351 29.2841 7.67299 29.6363 8.28441 29.9028C8.95777 30.1817 9.91433 30.3894 11.2034 30.4829C12.5562 30.5655 14.241 30.6076 16.2636 30.6076H21.7074C24.0546 30.6076 25.9655 30.4955 27.4561 30.2807C28.9488 30.0657 30.0431 29.7347 30.7989 29.3341C31.5397 28.9414 31.9749 28.4812 32.2157 27.9842ZM66.5812 32.9007C66.2073 33.2658 65.7522 33.5983 65.216 33.8985C64.5071 34.2811 63.5573 34.5786 62.3664 34.7912C61.1898 35.0179 59.6374 35.1313 57.7094 35.1313C55.1434 35.1313 52.9531 34.9967 51.1385 34.7274C49.3238 34.4724 47.8424 34.0756 46.694 33.5371C45.5457 32.9845 44.7022 32.2831 44.1635 31.4329C43.6389 30.5827 43.3767 29.5695 43.3767 28.3934C43.3767 27.1606 43.5184 26.119 43.802 25.2688C44.0997 24.4044 44.525 23.6818 45.0779 23.1008C45.645 22.5198 46.3254 22.0664 47.1193 21.7405C47.9132 21.4145 48.8135 21.1666 49.82 20.9965C50.8407 20.8265 51.9536 20.7202 53.1586 20.6777C54.3637 20.6352 55.6466 20.6139 57.0076 20.6139C58.9498 20.6139 60.5731 20.6989 61.8773 20.869C63.1816 21.0249 64.2449 21.2303 65.0671 21.4854C65.6779 21.6613 66.1791 21.8486 66.5707 22.0472C66.7153 22.1205 66.845 22.1954 66.9597 22.2718C67.385 22.5552 67.6898 22.8174 67.8741 23.0583C67.8741 22.4395 67.8633 21.8563 67.8418 21.3087C67.8081 20.4516 67.7479 19.6815 67.6614 18.9985C67.5339 17.8791 67.3141 16.9438 67.0022 16.1928C66.7045 15.4418 66.3147 14.8467 65.8327 14.4074C65.3506 13.9539 64.7552 13.6138 64.0464 13.3871C63.3517 13.1604 62.5365 13.0187 61.6009 12.962C60.6652 12.8912 59.5949 12.8557 58.3898 12.8557C56.5185 12.8557 54.9662 12.9053 53.7328 13.0045C52.4994 13.0896 51.5212 13.2667 50.7982 13.5359C50.0752 13.8051 49.5648 14.1807 49.2671 14.6624C48.9694 15.1301 48.8206 15.7465 48.8206 16.5117H44.7376C44.7376 16.0559 44.766 15.625 44.8226 15.2188C44.9263 14.4757 45.1248 13.8156 45.4181 13.2383C45.886 12.3456 46.6515 11.6229 47.7148 11.0703C48.7922 10.5035 50.2028 10.0926 51.9465 9.8375C53.6903 9.58243 55.838 9.4549 58.3898 9.4549C60.885 9.4549 62.9973 9.66037 64.7269 10.0713C66.4564 10.4822 67.8529 11.2049 68.9161 12.2393C69.9935 13.2738 70.7662 14.6695 71.234 16.4266C71.716 18.1696 71.957 20.3801 71.957 23.0583V34.6212H67.8741V31.2628C67.8316 31.4329 67.5126 31.858 66.9172 32.5381C66.8136 32.6624 66.7016 32.7832 66.5812 32.9007ZM66.5812 34.5685V35.914H73.2499V23.0583C73.2499 20.3168 73.0047 17.9821 72.4818 16.0882C71.9665 14.1562 71.0933 12.5385 69.8143 11.3094C68.5538 10.0844 66.9355 9.26719 65.0257 8.81345C63.1678 8.37202 60.9486 8.16203 58.3898 8.16203C55.8005 8.16203 53.5858 8.29109 51.7594 8.55824C49.9314 8.82563 48.3665 9.26721 47.116 9.92443C45.8647 10.5753 44.8849 11.4706 44.273 12.6382L44.2692 12.6454L44.2655 12.6526C43.697 13.7714 43.4448 15.0753 43.4448 16.5117V17.8045H50.1134V16.5117C50.1134 15.9023 50.2334 15.5521 50.3577 15.3568L50.3624 15.3495L50.367 15.3421C50.4671 15.18 50.6991 14.9524 51.2494 14.7475C51.8077 14.5396 52.6473 14.3753 53.8217 14.2943L53.8291 14.2938L53.8364 14.2932C55.0227 14.1978 56.5375 14.1486 58.3898 14.1486C59.5709 14.1486 60.6077 14.1834 61.5033 14.2512L61.513 14.2519L61.5227 14.2525C62.3778 14.3043 63.0798 14.4316 63.6452 14.6162L63.6489 14.6174L63.6525 14.6185C64.2008 14.7939 64.6217 15.0433 64.9468 15.3491L64.9542 15.3561L64.9618 15.363C65.2679 15.642 65.5582 16.0583 65.8003 16.6693L65.8042 16.679L65.8082 16.6887C66.0598 17.2944 66.2581 18.1031 66.3769 19.1449L66.3778 19.153L66.3788 19.161C66.4344 19.5996 66.4789 20.0815 66.5118 20.6073C66.1783 20.4759 65.8181 20.3566 65.4374 20.2466C64.5159 19.962 63.3746 19.7461 62.0375 19.5861C60.6598 19.4069 58.9788 19.3211 57.0076 19.3211C55.6333 19.3211 54.3351 19.3425 53.1131 19.3856C51.861 19.4298 50.6916 19.5406 49.6076 19.7212L49.6061 19.7215L49.6047 19.7217C48.5208 19.9048 47.5257 20.176 46.6283 20.5444C45.6807 20.9335 44.8499 21.4834 44.1527 22.1977L44.147 22.2036L44.1413 22.2095C43.4438 22.9425 42.9293 23.8325 42.5796 24.8478L42.5775 24.8538L42.5755 24.8598C42.2349 25.8811 42.0838 27.0699 42.0838 28.3934C42.0838 29.7662 42.3919 31.0237 43.0632 32.1117L43.0672 32.1183L43.0714 32.1249C43.7699 33.2272 44.8246 34.0723 46.1334 34.7021L46.1392 34.7049L46.1451 34.7077C47.4484 35.3188 49.0648 35.7412 50.9534 36.007C52.8491 36.2879 55.105 36.4242 57.7094 36.4242C59.6719 36.4242 61.3127 36.31 62.6021 36.0624C63.8639 35.8366 64.9577 35.507 65.8301 35.0362L65.8388 35.0315L65.8474 35.0266C66.104 34.883 66.349 34.7305 66.5812 34.5685ZM62.7174 30.3652L62.7195 30.3649C63.8708 30.2044 64.7121 29.9734 65.2911 29.7063C65.8768 29.436 66.1649 29.1568 66.3032 28.9305C66.4746 28.6502 66.5812 28.2951 66.5812 27.8195C66.5812 27.3863 66.4695 27.1058 66.3059 26.8981L66.2925 26.8812L66.2798 26.8639C66.1398 26.6735 65.8085 26.4016 65.0868 26.1491L65.0835 26.148L65.0803 26.1468C64.3863 25.8999 63.3924 25.7011 62.0569 25.5785L62.0504 25.578L62.0439 25.5773C60.713 25.4415 59.0445 25.3714 57.0289 25.3714C54.9993 25.3714 53.3749 25.4067 52.1474 25.4756C50.9508 25.5436 50.1373 25.6963 49.6358 25.8843C49.1799 26.0552 49.0276 26.2398 48.9685 26.3538C48.8528 26.6159 48.7525 27.077 48.7525 27.8195C48.7525 28.5444 48.8548 29.0351 48.9913 29.3518C49.0617 29.4847 49.2565 29.711 49.8206 29.9303C50.4117 30.16 51.362 30.3526 52.7436 30.4623C54.1469 30.5583 56.0254 30.6076 58.3898 30.6076C60.1556 30.6076 61.5932 30.5239 62.7174 30.3652ZM52.6483 31.7517C51.2164 31.6383 50.1177 31.4329 49.3522 31.1353C48.5866 30.8377 48.0763 30.4268 47.8211 29.9025C47.5801 29.364 47.4596 28.6697 47.4596 27.8195C47.4596 26.9693 47.573 26.2962 47.7998 25.8002C48.0408 25.3043 48.5016 24.9287 49.1821 24.6737C49.8625 24.4186 50.8266 24.2557 52.0741 24.1848C53.3359 24.114 54.9874 24.0785 57.0289 24.0785C59.0703 24.0785 60.7857 24.1494 62.175 24.2911C63.5644 24.4186 64.6772 24.6312 65.5137 24.9287C66.3643 25.2263 66.9668 25.616 67.3212 26.0978C67.6898 26.5654 67.8741 27.1393 67.8741 27.8195C67.8741 28.4996 67.7182 29.0948 67.4063 29.6049C67.0944 30.115 66.5698 30.5401 65.8327 30.8802C65.0955 31.2203 64.1172 31.4754 62.898 31.6454C61.693 31.8155 60.1903 31.9005 58.3898 31.9005C56.0081 31.9005 54.0943 31.8509 52.6483 31.7517ZM100.627 35.914V21.0178C100.627 19.5584 100.517 18.3825 100.316 17.4687L100.316 17.467L100.316 17.4652C100.136 16.6334 99.7954 16.0379 99.3343 15.6058C98.8724 15.173 98.1434 14.7923 97.0399 14.5416C95.9248 14.2883 94.3876 14.1486 92.3928 14.1486C90.235 14.1486 88.5275 14.3085 87.2405 14.6042C85.9399 14.9063 85.017 15.3115 84.3982 15.7672C83.7696 16.2302 83.3803 16.7475 83.1662 17.3161C82.927 17.9916 82.7979 18.7673 82.7979 19.6574V35.914H76.1293V8.8422H82.7979V10.7523C83.1964 10.4663 83.619 10.2097 84.0649 9.98232C84.8445 9.58473 85.6798 9.27038 86.5671 9.03626C87.4223 8.79677 88.28 8.6161 89.1399 8.49495C89.9831 8.36222 90.8022 8.27281 91.5967 8.22786L91.5981 8.22778C92.3823 8.18423 93.1014 8.16203 93.7537 8.16203C95.6172 8.16203 97.2546 8.27807 98.6531 8.52114C100.052 8.76186 101.287 9.1237 102.331 9.62866C103.384 10.1313 104.277 10.7797 104.968 11.5943C105.629 12.3737 106.13 13.2708 106.476 14.2713C106.83 15.2394 107.055 16.3032 107.162 17.4526C107.266 18.5482 107.317 19.7373 107.317 21.0178V21.0198L107.293 35.914H100.627ZM105.875 17.5744C105.776 16.5117 105.57 15.5552 105.258 14.705C104.96 13.8406 104.535 13.0825 103.982 12.4306C103.429 11.7788 102.692 11.2333 101.771 10.794C100.863 10.3547 99.7505 10.0217 98.4321 9.79499C97.1278 9.56826 95.5684 9.4549 93.7537 9.4549C93.13 9.4549 92.4353 9.47616 91.6697 9.51867C90.9184 9.56118 90.1386 9.6462 89.3306 9.77373C88.5225 9.88709 87.7144 10.0571 86.9064 10.2839C86.0983 10.4964 85.3469 10.7798 84.6522 11.1341C83.9647 11.4847 83.3466 11.9117 82.7979 12.415C82.7922 12.4202 82.7866 12.4254 82.7809 12.4306C82.228 12.9266 81.8027 13.5217 81.505 14.2161V10.1351H77.4221V34.6212H81.505V19.6574C81.505 18.6372 81.6539 17.709 81.9516 16.873C82.2635 16.037 82.8234 15.3214 83.6315 14.7262C84.4396 14.1311 85.5454 13.6705 86.9489 13.3446C88.3666 13.0187 90.1812 12.8557 92.3928 12.8557C94.4342 12.8557 96.0787 12.9974 97.3263 13.2808C98.5739 13.5643 99.5379 14.0248 100.218 14.6624C100.899 15.3001 101.352 16.1432 101.579 17.1918C101.806 18.2262 101.92 19.5016 101.92 21.0178V34.6212H106.002L106.024 21.0178C106.024 19.7708 105.974 18.623 105.875 17.5744ZM136.599 22.4456V23.7385C136.599 25.8831 136.424 27.7361 136.052 29.272L136.051 29.2749C135.669 30.8333 135.004 32.1652 134.006 33.1992C133.024 34.2321 131.755 34.9326 130.265 35.3374C128.815 35.7313 127.084 35.914 125.099 35.914C123.184 35.914 121.522 35.7687 120.137 35.4575C118.717 35.1385 117.486 34.5775 116.508 33.725C115.519 32.8625 114.84 31.7344 114.44 30.4017C114.051 29.1075 113.875 27.5553 113.875 25.779V14.7863H108.835V8.8422H113.875V2.14678H120.544V8.8422H135.918V14.7863H120.544V25.779C120.544 27.0908 120.641 28.0029 120.794 28.5771C120.955 29.1305 121.163 29.3856 121.323 29.5057C121.529 29.6595 121.867 29.8024 122.431 29.8461C123.14 29.8995 124.02 29.9274 125.077 29.9274C125.914 29.9274 126.654 29.9135 127.298 29.8861L127.299 29.886C127.902 29.861 128.38 29.7875 128.751 29.6828C129.108 29.5726 129.372 29.4266 129.571 29.2625C129.731 29.1182 129.906 28.8793 130.059 28.4817L130.064 28.4683L130.069 28.4551C130.238 28.0453 130.38 27.4747 130.471 26.7123C130.562 25.9283 130.611 24.9405 130.611 23.7385V22.4456H136.599ZM131.755 26.863C131.655 27.699 131.492 28.3934 131.266 28.946C131.053 29.4986 130.769 29.9308 130.415 30.2426C130.06 30.5401 129.628 30.7669 129.118 30.9227C128.622 31.0644 128.033 31.1495 127.353 31.1778C126.686 31.2061 125.928 31.2203 125.077 31.2203C124 31.2203 123.086 31.192 122.334 31.1353C121.597 31.0786 121.002 30.8802 120.548 30.5401C120.094 30.2001 119.761 29.6616 119.548 28.9247C119.35 28.1879 119.251 27.1393 119.251 25.779V13.4934H134.625V10.1351H119.251V3.43966H115.168V10.1351H110.128V13.4934H115.168V25.779C115.168 27.4794 115.338 28.8964 115.678 30.03C116.018 31.1636 116.578 32.0705 117.358 32.7507C118.138 33.4309 119.159 33.9127 120.42 34.1961C121.682 34.4795 123.241 34.6212 125.099 34.6212C127.012 34.6212 128.622 34.444 129.926 34.0898C131.23 33.7355 132.279 33.1404 133.073 32.3043C133.881 31.4683 134.455 30.3559 134.796 28.9673C135.063 27.8652 135.225 26.5532 135.282 25.0313C135.298 24.616 135.306 24.185 135.306 23.7385H131.903C131.903 24.9713 131.854 26.0128 131.755 26.863ZM160.88 35.7582L160.876 35.7592C158.862 36.1797 156.457 36.3817 153.679 36.3817C150.901 36.3817 148.496 36.1797 146.482 35.7592L146.478 35.7582L146.473 35.7573C144.424 35.314 142.676 34.5476 141.29 33.4098C139.884 32.2555 138.892 30.7177 138.287 28.8567C137.692 27.0267 137.415 24.7977 137.415 22.2081C137.415 19.619 137.692 17.3955 138.288 15.5776C138.894 13.7288 139.889 12.2041 141.298 11.0642C142.687 9.94011 144.438 9.19682 146.487 8.78352C148.499 8.36363 150.903 8.16203 153.679 8.16203C156.455 8.16203 158.859 8.36364 160.871 8.78353C162.921 9.19683 164.671 9.94012 166.061 11.0642C167.469 12.2041 168.464 13.7288 169.07 15.5776C169.666 17.3955 169.943 19.619 169.943 22.2081C169.943 24.7977 169.666 27.0267 169.071 28.8567C168.466 30.7177 167.474 32.2555 166.068 33.4098C164.682 34.5476 162.934 35.314 160.885 35.7573L160.88 35.7582ZM160.611 10.05C158.712 9.65328 156.401 9.4549 153.679 9.4549C150.957 9.4549 148.646 9.65328 146.747 10.05C144.847 10.4326 143.302 11.1057 142.111 12.0693C140.92 13.0329 140.055 14.3365 139.516 15.9803C138.978 17.624 138.708 19.6999 138.708 22.2081C138.708 24.7162 138.978 26.7992 139.516 28.4571C140.055 30.115 140.92 31.4329 142.111 32.4106C143.302 33.3884 144.847 34.0827 146.747 34.4936C148.646 34.8904 150.957 35.0888 153.679 35.0888C156.401 35.0888 158.712 34.8904 160.611 34.4936C162.511 34.0827 164.056 33.3884 165.247 32.4106C166.438 31.4329 167.303 30.115 167.842 28.4571C168.38 26.7992 168.65 24.7162 168.65 22.2081C168.65 19.6999 168.38 17.624 167.842 15.9803C167.303 14.3365 166.438 13.0329 165.247 12.0693C164.056 11.1057 162.511 10.4326 160.611 10.05ZM159.77 30.1251L159.773 30.1243C160.458 29.9322 160.997 29.6747 161.418 29.372C161.792 29.0893 162.116 28.6925 162.376 28.1402L162.381 28.1309L162.385 28.1217C162.666 27.5495 162.891 26.7999 163.033 25.8438L163.034 25.8368L163.035 25.8297C163.191 24.8545 163.274 23.6513 163.274 22.2081C163.274 20.7933 163.191 19.629 163.036 18.701L163.035 18.6911L163.033 18.6811C162.891 17.7404 162.668 17.0192 162.395 16.483L162.39 16.4736L162.385 16.4642C162.13 15.9427 161.812 15.5752 161.444 15.3179L161.435 15.3118L161.426 15.3055C161.018 15.0091 160.49 14.7661 159.814 14.6002L159.801 14.597L159.788 14.5935C159.103 14.4102 158.261 14.2852 157.247 14.2319L157.247 14.2318C156.211 14.1766 155.023 14.1486 153.679 14.1486C152.335 14.1486 151.139 14.1766 150.089 14.2319C149.092 14.2851 148.247 14.41 147.543 14.595L147.536 14.597L147.528 14.5989C146.868 14.7639 146.344 15.0064 145.932 15.3055L145.923 15.3118L145.914 15.3179C145.543 15.5773 145.217 15.9486 144.947 16.4739C144.681 17.0202 144.457 17.7494 144.302 18.6914C144.16 19.6254 144.084 20.7934 144.084 22.2081C144.084 23.5395 144.133 24.6784 144.227 25.6308C144.318 26.5526 144.482 27.2988 144.701 27.8887C144.923 28.4508 145.207 28.8615 145.535 29.1607C145.867 29.4639 146.347 29.7457 147.028 29.9725C147.712 30.2006 148.584 30.3703 149.664 30.4636C150.78 30.5587 152.116 30.6076 153.679 30.6076C155.02 30.6076 156.205 30.5797 157.239 30.5248C158.247 30.4581 159.086 30.3206 159.767 30.1259L159.77 30.1251ZM157.315 31.8155C156.252 31.8721 155.04 31.9005 153.679 31.9005C152.091 31.9005 150.716 31.8509 149.554 31.7517C148.405 31.6525 147.427 31.4683 146.619 31.1991C145.811 30.9298 145.159 30.5685 144.663 30.115C144.166 29.6616 143.777 29.0735 143.493 28.3509C143.224 27.6282 143.039 26.7638 142.94 25.7577C142.841 24.7516 142.791 23.5684 142.791 22.2081C142.791 20.7485 142.869 19.5086 143.025 18.4884C143.195 17.454 143.45 16.5896 143.791 15.8953C144.145 15.2009 144.606 14.6554 145.173 14.2586C145.74 13.8477 146.421 13.543 147.214 13.3446C148.022 13.1321 148.958 12.9974 150.021 12.9408C151.099 12.8841 152.318 12.8557 153.679 12.8557C155.04 12.8557 156.252 12.8841 157.315 12.9408C158.393 12.9974 159.328 13.1321 160.122 13.3446C160.93 13.543 161.618 13.8477 162.185 14.2586C162.752 14.6554 163.206 15.2009 163.546 15.8953C163.9 16.5896 164.156 17.454 164.312 18.4884C164.482 19.5086 164.567 20.7485 164.567 22.2081C164.567 23.6959 164.482 24.9713 164.312 26.034C164.156 27.0826 163.9 27.9683 163.546 28.6909C163.206 29.4136 162.752 29.9875 162.185 30.4126C161.618 30.8235 160.93 31.1424 160.122 31.3691C159.328 31.5958 158.393 31.7446 157.315 31.8155Z" fill="white"/>
<path d="M6.39766 89.6605L1 79.6027H2.98861L7.534 88.5429L12.0794 79.6027H14.068L8.67035 89.6605H6.39766Z" fill="white"/>
<path d="M21.1702 89.8525C20.0338 89.8525 19.0691 89.7769 18.276 89.6255C17.483 89.4684 16.8379 89.2006 16.3407 88.8223C15.8436 88.444 15.4825 87.9376 15.2576 87.3032C15.0327 86.6687 14.9203 85.8713 14.9203 84.911C14.9203 83.8109 15.0327 82.9029 15.2576 82.187C15.4825 81.4653 15.8436 80.8919 16.3407 80.467C16.8379 80.0422 17.483 79.7453 18.276 79.5765C19.0691 79.4077 20.0338 79.3233 21.1702 79.3233C21.981 79.3233 22.6824 79.3815 23.2742 79.4979C23.872 79.6143 24.381 79.7831 24.8012 80.0043C25.2273 80.2255 25.5706 80.4932 25.831 80.8075C26.0973 81.1218 26.3045 81.4536 26.4524 81.8028C26.6063 82.1462 26.7099 82.5508 26.7631 83.0164C26.8223 83.482 26.8519 83.9739 26.8519 84.4919L26.7099 85.0507H16.6248C16.6248 85.819 16.7017 86.4505 16.8556 86.9452C17.0095 87.4341 17.264 87.7921 17.6191 88.0191C17.9742 88.2461 18.4418 88.3916 19.0218 88.4556C19.6018 88.5138 20.3179 88.5429 21.1702 88.5429C21.9514 88.5429 22.5965 88.5226 23.1055 88.4818C23.6204 88.4353 24.0288 88.3509 24.3307 88.2286C24.6325 88.1064 24.8426 87.9376 24.961 87.7222C25.0853 87.5011 25.1474 87.2159 25.1474 86.8666H26.8519C26.8519 87.4079 26.7543 87.8707 26.559 88.2548C26.3696 88.6332 26.0529 88.9416 25.609 89.1803C25.1652 89.4131 24.5792 89.5819 23.8513 89.6867C23.1292 89.7972 22.2355 89.8525 21.1702 89.8525ZM21.1702 80.7202C20.602 80.7202 20.093 80.7319 19.6432 80.7552C19.1993 80.7784 18.8087 80.8308 18.4714 80.9123C18.1399 80.988 17.8558 81.1015 17.6191 81.2528C17.3824 81.3983 17.19 81.5729 17.042 81.7766C16.9 81.9745 16.7935 82.2568 16.7224 82.6235C16.6573 82.9844 16.6248 83.4209 16.6248 83.9331H25.1474C25.1474 83.2521 25.0734 82.7196 24.9255 82.3354C24.7775 81.9454 24.5437 81.6253 24.2241 81.375C23.9045 81.1248 23.4932 80.9531 22.9901 80.8599C22.487 80.7668 21.8804 80.7202 21.1702 80.7202Z" fill="white"/>
<path d="M39.3518 89.6605V84.0728C39.3518 83.45 39.3044 82.9262 39.2097 82.5013C39.115 82.0706 38.9256 81.7243 38.6415 81.4623C38.3575 81.2004 37.955 81.0113 37.4342 80.8948C36.9133 80.7784 36.2268 80.7202 35.3745 80.7202C34.4513 80.7202 33.6937 80.7872 33.1018 80.921C32.5159 81.0549 32.0543 81.2441 31.7169 81.4885C31.3796 81.733 31.1458 82.0269 31.0156 82.3703C30.8913 82.7137 30.8291 83.095 30.8291 83.5141V89.6605H29.1246V79.6027H30.8291V81.279C30.9534 80.9938 31.131 80.7493 31.3618 80.5456C31.5926 80.3361 31.853 80.1586 32.143 80.013C32.4331 79.8675 32.7467 79.7511 33.0841 79.6638C33.4214 79.5707 33.7588 79.5008 34.0961 79.4543C34.4335 79.4019 34.759 79.367 35.0727 79.3495C35.3923 79.3321 35.6823 79.3233 35.9427 79.3233C36.7003 79.3233 37.3513 79.3699 37.8958 79.463C38.4462 79.5561 38.9108 79.6929 39.2896 79.8734C39.6743 80.0538 39.9821 80.2779 40.2129 80.5456C40.4437 80.8134 40.6213 81.1248 40.7456 81.4798C40.8758 81.829 40.9616 82.2219 41.003 82.6584C41.0444 83.0892 41.0652 83.5606 41.0652 84.0728L41.0563 89.6605H39.3518Z" fill="white"/>
<path d="M53.2898 85.1903C53.2898 86.046 53.2188 86.7619 53.0767 87.3381C52.9347 87.9085 52.695 88.3654 52.3576 88.7088C52.0262 89.0522 51.5882 89.2967 51.0437 89.4422C50.4992 89.5877 49.8275 89.6605 49.0285 89.6605C48.2532 89.6605 47.6021 89.6023 47.0754 89.4858C46.5486 89.3694 46.1225 89.1715 45.797 88.8922C45.4715 88.6128 45.2377 88.2403 45.0956 87.7746C44.9536 87.309 44.8826 86.727 44.8826 86.0285V80.9822H42.7786V79.6027H44.8826V76.8525H46.5871V79.6027H53.0057V80.9822H46.5871V86.0285C46.5871 86.5873 46.6285 87.018 46.7114 87.3206C46.8002 87.6233 46.9393 87.8445 47.1286 87.9842C47.318 88.1239 47.5666 88.2053 47.8744 88.2286C48.188 88.2519 48.5698 88.2636 49.0196 88.2636C49.3747 88.2636 49.6913 88.2577 49.9695 88.2461C50.2536 88.2345 50.4992 88.1995 50.7064 88.1413C50.9194 88.0773 51.0999 87.9842 51.2479 87.8619C51.3959 87.7339 51.5142 87.5564 51.603 87.3294C51.6977 87.1024 51.7658 86.8172 51.8072 86.4738C51.8486 86.1245 51.8693 85.6967 51.8693 85.1903H53.2898Z" fill="white"/>
<path d="M57.2759 79.6027V85.1903C57.2759 85.8131 57.3232 86.3399 57.4179 86.7706C57.5126 87.1955 57.702 87.5389 57.9861 87.8008C58.2702 88.0627 58.6726 88.2519 59.1935 88.3683C59.7143 88.4847 60.4008 88.5429 61.2531 88.5429C62.1764 88.5429 62.931 88.476 63.5169 88.3421C64.1088 88.2083 64.5734 88.0191 64.9107 87.7746C65.2481 87.5302 65.4789 87.2362 65.6032 86.8928C65.7334 86.5494 65.7985 86.1682 65.7985 85.7491V79.6027H67.503V89.6605H65.7985V87.9842C65.7156 88.1646 65.5765 88.3654 65.3812 88.5866C65.1859 88.8019 64.893 89.0028 64.5023 89.189C64.1117 89.3753 63.6057 89.5324 62.9843 89.6605C62.3687 89.7885 61.6023 89.8525 60.6849 89.8525C59.9214 89.8525 59.2645 89.806 58.7141 89.7128C58.1696 89.6255 57.705 89.4946 57.3203 89.32C56.9415 89.1395 56.6367 88.9184 56.4059 88.6564C56.175 88.3945 55.9975 88.0918 55.8732 87.7484C55.7489 87.3992 55.6661 87.0122 55.6246 86.5873C55.5832 86.1624 55.5625 85.6967 55.5625 85.1903L55.5714 79.6027H57.2759Z" fill="white"/>
<path d="M78.5913 82.8767C78.5913 82.4576 78.5587 82.1113 78.4936 81.8378C78.4344 81.5584 78.2894 81.3372 78.0586 81.1742C77.8278 81.0054 77.4845 80.889 77.0288 80.825C76.579 80.7552 75.9635 80.7202 75.1822 80.7202C74.4188 80.7202 73.7973 80.7872 73.3179 80.921C72.8385 81.0491 72.4627 81.2324 72.1905 81.4711C71.9182 81.7097 71.7318 81.9949 71.6312 82.3267C71.5365 82.6584 71.4891 83.028 71.4891 83.4355V89.6605H69.7846V79.6027H71.4891V81.2004C71.5483 81.02 71.6578 80.8221 71.8176 80.6067C71.9774 80.3856 72.22 80.1818 72.5456 79.9956C72.8711 79.8035 73.2913 79.6435 73.8062 79.5154C74.327 79.3873 74.9751 79.3233 75.7504 79.3233C76.6382 79.3233 77.3602 79.4019 77.9166 79.5591C78.4729 79.7104 78.905 79.9374 79.2127 80.24C79.5264 80.5369 79.7365 80.9065 79.843 81.3488C79.9555 81.7912 80.0117 82.3005 80.0117 82.8767H78.5913Z" fill="white"/>
<path d="M87.1139 89.8525C85.9776 89.8525 85.0128 89.7769 84.2198 89.6255C83.4267 89.4684 82.7816 89.2006 82.2844 88.8223C81.7873 88.444 81.4262 87.9376 81.2013 87.3032C80.9764 86.6687 80.864 85.8713 80.864 84.911C80.864 83.8109 80.9764 82.9029 81.2013 82.187C81.4262 81.4653 81.7873 80.8919 82.2844 80.467C82.7816 80.0422 83.4267 79.7453 84.2198 79.5765C85.0128 79.4077 85.9776 79.3233 87.1139 79.3233C87.9247 79.3233 88.6261 79.3815 89.2179 79.4979C89.8157 79.6143 90.3247 79.7831 90.7449 80.0043C91.171 80.2255 91.5143 80.4932 91.7747 80.8075C92.041 81.1218 92.2482 81.4536 92.3961 81.8028C92.55 82.1462 92.6536 82.5508 92.7069 83.0164C92.7661 83.482 92.7956 83.9739 92.7956 84.4919L92.6536 85.0507H82.5685C82.5685 85.819 82.6454 86.4505 82.7993 86.9452C82.9532 87.4341 83.2077 87.7921 83.5628 88.0191C83.9179 88.2461 84.3855 88.3916 84.9655 88.4556C85.5455 88.5138 86.2616 88.5429 87.1139 88.5429C87.8951 88.5429 88.5403 88.5226 89.0492 88.4818C89.5642 88.4353 89.9725 88.3509 90.2744 88.2286C90.5762 88.1064 90.7863 87.9376 90.9047 87.7222C91.029 87.5011 91.0911 87.2159 91.0911 86.8666H92.7956C92.7956 87.4079 92.698 87.8707 92.5027 88.2548C92.3133 88.6332 91.9967 88.9416 91.5528 89.1803C91.1089 89.4131 90.5229 89.5819 89.795 89.6867C89.0729 89.7972 88.1792 89.8525 87.1139 89.8525ZM87.1139 80.7202C86.5457 80.7202 86.0367 80.7319 85.5869 80.7552C85.1431 80.7784 84.7524 80.8308 84.4151 80.9123C84.0836 80.988 83.7996 81.1015 83.5628 81.2528C83.3261 81.3983 83.1337 81.5729 82.9858 81.7766C82.8437 81.9745 82.7372 82.2568 82.6662 82.6235C82.6011 82.9844 82.5685 83.4209 82.5685 83.9331H91.0911C91.0911 83.2521 91.0171 82.7196 90.8692 82.3354C90.7212 81.9454 90.4874 81.6253 90.1678 81.375C89.8482 81.1248 89.4369 80.9531 88.9338 80.8599C88.4308 80.7668 87.8241 80.7202 87.1139 80.7202Z" fill="white"/>
<path d="M101.034 85.0769C100.229 85.0769 99.522 85.0652 98.9124 85.0419C98.3028 85.0186 97.776 84.9721 97.3322 84.9022C96.8942 84.8266 96.5272 84.7218 96.2313 84.5879C95.9413 84.4541 95.7105 84.2765 95.5389 84.0554C95.3672 83.8284 95.2459 83.5519 95.1749 83.2259C95.1039 82.8942 95.0683 82.5362 95.0683 82.1521C95.0683 81.6282 95.1808 81.1888 95.4057 80.8337C95.6306 80.4729 95.9916 80.1818 96.4888 79.9607C96.9859 79.7337 97.631 79.5707 98.4241 79.4717C99.2172 79.3728 100.182 79.3233 101.318 79.3233C102.443 79.3233 103.369 79.3815 104.097 79.4979C104.831 79.6143 105.411 79.7948 105.837 80.0392C106.269 80.2779 106.571 80.5805 106.743 80.9472C106.914 81.3139 107 81.7505 107 82.2568H105.295C105.295 81.9425 105.233 81.6864 105.109 81.4885C104.991 81.2906 104.781 81.1364 104.479 81.0258C104.177 80.9094 103.769 80.8308 103.254 80.7901C102.745 80.7435 102.099 80.7202 101.318 80.7202C100.466 80.7202 99.7499 80.7319 99.1698 80.7552C98.5898 80.7784 98.1223 80.8366 97.7672 80.9298C97.4121 81.0229 97.1576 81.1655 97.0037 81.3576C96.8498 81.5497 96.7729 81.8145 96.7729 82.1521C96.7729 82.35 96.7847 82.545 96.8084 82.737C96.838 82.9233 96.9001 83.0775 96.9948 83.1998C97.0895 83.322 97.2286 83.4151 97.4121 83.4791C97.5955 83.5432 97.8441 83.5926 98.1578 83.6276C98.4774 83.6567 98.871 83.6741 99.3385 83.6799C99.8061 83.6799 100.371 83.6799 101.034 83.6799C101.839 83.6799 102.543 83.6974 103.147 83.7323C103.757 83.7672 104.283 83.8284 104.727 83.9157C105.171 84.003 105.538 84.1368 105.828 84.3173C106.118 84.4977 106.349 84.6956 106.521 84.911C106.698 85.1205 106.822 85.3708 106.893 85.6618C106.964 85.947 107 86.2788 107 86.6571C107 87.0354 106.964 87.3759 106.893 87.6786C106.822 87.9754 106.698 88.2403 106.521 88.4731C106.343 88.7001 106.1 88.898 105.793 89.0668C105.491 89.2297 105.109 89.3636 104.647 89.4684C104.186 89.5673 103.632 89.6401 102.987 89.6867C102.348 89.739 101.602 89.7652 100.75 89.7652C99.6848 89.7652 98.7881 89.7128 98.0601 89.6081C97.3381 89.5033 96.7551 89.3374 96.3112 89.1104C95.8673 88.8776 95.5477 88.5779 95.3524 88.2112C95.163 87.8445 95.0683 87.3963 95.0683 86.8666H96.7729C96.7729 87.2159 96.832 87.5011 96.9504 87.7222C97.0747 87.9376 97.2878 88.1064 97.5896 88.2286C97.8915 88.3509 98.2969 88.4353 98.8059 88.4818C99.3208 88.5226 99.9688 88.5429 100.75 88.5429C101.46 88.5429 102.064 88.5284 102.561 88.4993C103.064 88.4644 103.484 88.412 103.822 88.3421C104.159 88.2723 104.425 88.1879 104.621 88.0889C104.816 87.99 104.964 87.8707 105.065 87.731C105.165 87.5913 105.227 87.437 105.251 87.2683C105.281 87.0936 105.295 86.9016 105.295 86.692C105.295 86.5 105.281 86.3312 105.251 86.1856C105.227 86.0343 105.168 85.8859 105.074 85.7404C104.979 85.5891 104.84 85.4756 104.656 85.3999C104.473 85.3242 104.221 85.2631 103.902 85.2165C103.588 85.1642 103.197 85.1292 102.73 85.1118C102.262 85.0885 101.697 85.0769 101.034 85.0769Z" fill="white"/>
</svg>
