<svg width="1366" height="231" viewBox="0 0 1366 231" fill="none" xmlns="http://www.w3.org/2000/svg">
<mask id="path-1-outside-1_61_385" maskUnits="userSpaceOnUse" x="-8" y="0" width="1383" height="231" fill="black">
<rect fill="white" x="-8" width="1383" height="231"/>
<path d="M138.554 102.362C152.695 102.362 164.823 102.943 174.938 104.105C185.052 105.267 193.555 107.009 200.446 109.332C207.428 111.566 212.977 114.381 217.094 117.777C221.212 121.172 224.389 125.059 226.627 129.438C228.864 133.727 230.296 138.553 230.923 143.914C231.639 149.276 231.997 155.084 231.997 161.339C231.997 167.594 231.415 173.492 230.252 179.032C229.177 184.483 227.208 189.487 224.344 194.044C221.48 198.601 217.587 202.667 212.664 206.242C207.741 209.816 201.476 212.854 193.868 215.356C186.26 217.858 177.086 219.735 166.345 220.986C155.694 222.326 143.208 222.996 128.887 222.996H94.5173C81.6286 222.996 70.3509 222.505 60.6844 221.522C51.0178 220.539 42.6939 219.064 35.7125 217.099C28.7311 215.043 22.958 212.497 18.3933 209.458C13.8285 206.331 10.1588 202.712 7.38416 198.601C4.69901 194.402 2.8194 189.666 1.74534 184.393C0.671284 179.032 0.134261 173.134 0.134261 166.701H25.9117C25.9117 174.743 27.0753 181.043 29.4024 185.6C31.7295 190.157 35.5782 193.597 40.9485 195.921C46.3188 198.155 53.345 199.584 62.027 200.21C70.7984 200.746 81.6286 201.014 94.5173 201.014H128.887C143.924 201.014 156.41 200.299 166.345 198.87C176.28 197.44 184.201 195.161 190.109 192.034C196.016 188.906 200.178 184.84 202.595 179.836C205.011 174.743 206.219 168.577 206.219 161.339C206.219 154.101 205.369 148.069 203.669 143.244C202.058 138.419 198.791 134.576 193.868 131.717C189.035 128.857 182.187 126.847 173.326 125.685C164.465 124.434 152.875 123.808 138.554 123.808H103.11C87.3569 123.808 73.8416 123.228 62.564 122.066C51.3759 120.904 41.9778 119.251 34.3699 117.107C26.762 114.873 20.6757 112.147 16.1109 108.93C11.5461 105.624 8.05545 101.871 5.63881 97.6711C3.31169 93.4713 1.7901 88.8247 1.07406 83.7312C0.358024 78.5484 0 72.9635 0 66.9765C0 60.7214 0.537029 54.9132 1.61109 49.5517C2.77465 44.1902 4.87802 39.3648 7.92119 35.0756C10.9644 30.697 15.1263 26.8099 20.4071 23.4143C25.6879 20.0187 32.4456 17.2039 40.68 14.97C49.004 12.6466 58.9838 10.9041 70.6194 9.74249C82.2551 8.58083 95.9493 8 111.702 8H137.48C150.368 8 161.646 8.49147 171.313 9.47441C180.979 10.368 189.303 11.8424 196.284 13.8977C203.266 15.8635 209.039 18.3656 213.604 21.4038C218.258 24.3526 221.928 27.9269 224.613 32.1268C227.387 36.2373 229.312 40.9286 230.386 46.2007C231.46 51.4729 231.997 57.3258 231.997 63.7596H206.219C206.219 55.7174 205.056 49.4176 202.729 44.8603C200.402 40.3031 196.553 36.9074 191.183 34.6735C185.812 32.3502 178.741 30.9204 169.97 30.3843C161.198 29.7588 150.368 29.446 137.48 29.446H111.702C94.5173 29.446 80.3755 30.0715 69.2769 31.3225C58.1782 32.4842 49.4068 34.4948 42.9624 37.3542C36.518 40.2137 32.0428 44.0561 29.5366 48.8815C27.0305 53.7068 25.7774 59.7385 25.7774 66.9765C25.7774 71.4445 26.0907 75.4209 26.7172 78.9059C27.3438 82.3909 28.5968 85.4737 30.4765 88.1545C32.4456 90.7459 35.1755 92.9352 38.6662 94.7223C42.1568 96.5095 46.7664 97.9839 52.4947 99.1456C58.223 100.307 65.2044 101.156 73.4388 101.692C81.7628 102.139 91.6531 102.362 103.11 102.362H138.554Z"/>
<path d="M413.716 151.42C413.716 164.556 412.642 175.547 410.494 184.393C408.346 193.151 404.721 200.165 399.619 205.437C394.607 210.709 387.984 214.462 379.749 216.696C371.515 218.93 361.356 220.047 349.273 220.047C337.548 220.047 327.702 219.154 319.736 217.367C311.77 215.58 305.326 212.541 300.403 208.252C295.48 203.963 291.945 198.244 289.797 191.095C287.649 183.947 286.574 175.011 286.574 164.288V86.8141H254.755V65.6361H286.574V23.4143H312.352V65.6361H409.42V86.8141H312.352V164.288C312.352 172.866 312.978 179.479 314.232 184.125C315.574 188.772 317.677 192.168 320.542 194.312C323.406 196.457 327.165 197.708 331.819 198.065C336.563 198.423 342.336 198.601 349.138 198.601C354.509 198.601 359.297 198.512 363.504 198.333C367.8 198.155 371.515 197.618 374.647 196.725C377.87 195.742 380.599 194.312 382.837 192.436C385.075 190.47 386.865 187.744 388.207 184.259C389.639 180.774 390.669 176.396 391.295 171.124C391.922 165.762 392.235 159.194 392.235 151.42H413.716Z"/>
<path d="M435.197 141.769C435.197 125.953 436.898 112.862 440.299 102.496C443.7 92.1309 449.16 83.9099 456.679 77.8336C464.197 71.7572 473.953 67.5127 485.947 65.1C497.94 62.598 512.53 61.3469 529.715 61.3469C546.9 61.3469 561.489 62.598 573.483 65.1C585.476 67.5127 595.232 71.7572 602.751 77.8336C610.269 83.9099 615.729 92.1309 619.13 102.496C622.531 112.862 624.232 125.953 624.232 141.769C624.232 157.586 622.531 170.722 619.13 181.177C615.729 191.631 610.269 199.942 602.751 206.108C595.232 212.273 585.476 216.652 573.483 219.243C561.489 221.745 546.9 222.996 529.715 222.996C512.53 222.996 497.94 221.745 485.947 219.243C473.953 216.652 464.197 212.273 456.679 206.108C449.16 199.942 443.7 191.631 440.299 181.177C436.898 170.722 435.197 157.586 435.197 141.769ZM460.975 141.769C460.975 150.348 461.288 157.809 461.915 164.154C462.541 170.498 463.705 175.949 465.405 180.506C467.196 185.064 469.657 188.772 472.79 191.631C475.922 194.491 480.04 196.77 485.141 198.467C490.243 200.165 496.419 201.327 503.669 201.952C511.008 202.578 519.69 202.891 529.715 202.891C538.307 202.891 545.96 202.712 552.673 202.354C559.475 201.908 565.383 200.969 570.395 199.54C575.497 198.11 579.838 196.099 583.418 193.508C586.998 190.827 589.862 187.208 592.01 182.651C594.248 178.094 595.859 172.509 596.844 165.896C597.918 159.194 598.455 151.152 598.455 141.769C598.455 132.566 597.918 124.747 596.844 118.313C595.859 111.79 594.248 106.339 592.01 101.96C589.862 97.5817 586.998 94.1415 583.418 91.6394C579.838 89.048 575.497 87.1268 570.395 85.8758C565.383 84.5354 559.475 83.6865 552.673 83.3291C545.96 82.9717 538.307 82.7929 529.715 82.7929C521.122 82.7929 513.425 82.9717 506.622 83.3291C499.91 83.6865 494.002 84.5354 488.901 85.8758C483.888 87.1268 479.592 89.048 476.012 91.6394C472.432 94.1415 469.523 97.5817 467.285 101.96C465.137 106.339 463.526 111.79 462.452 118.313C461.467 124.747 460.975 132.566 460.975 141.769Z"/>
<path d="M919.923 175.819H756.666L730.888 223H700.814L821.109 17.1183H855.479L975.774 223H945.7L919.923 175.819ZM907.034 154.373L838.294 34.2751L769.554 154.373H907.034Z"/>
<path d="M1156.22 223V137.216C1156.22 127.655 1155.5 119.612 1154.07 113.089C1152.64 106.477 1149.77 101.16 1145.48 97.1387C1141.18 93.1176 1135.09 90.2135 1127.22 88.4263C1119.34 86.6391 1108.96 85.7455 1096.07 85.7455C1082.11 85.7455 1070.65 86.7732 1061.7 88.8284C1052.84 90.8836 1045.86 93.7878 1040.75 97.5408C1035.65 101.294 1032.12 105.806 1030.15 111.079C1028.27 116.351 1027.33 122.204 1027.33 128.638V223H1001.55V68.5887H1027.33V94.3239C1029.21 89.9454 1031.89 86.1923 1035.38 83.0648C1038.87 79.8479 1042.81 77.1225 1047.2 74.8885C1051.58 72.6545 1056.33 70.8674 1061.43 69.527C1066.53 68.0973 1071.63 67.0249 1076.74 66.3101C1081.84 65.5059 1086.76 64.9697 1091.5 64.7016C1096.34 64.4335 1100.72 64.2995 1104.66 64.2995C1116.12 64.2995 1125.96 65.0144 1134.2 66.4441C1142.52 67.8739 1149.55 69.9738 1155.28 72.7439C1161.09 75.514 1165.75 78.9543 1169.24 83.0648C1172.73 87.1753 1175.41 91.956 1177.29 97.4068C1179.26 102.768 1180.56 108.8 1181.19 115.502C1181.81 122.114 1182.13 129.352 1182.13 137.216L1181.99 223H1156.22Z"/>
<path d="M1367 154.373C1367 167.508 1365.93 178.5 1363.78 187.346C1361.63 196.103 1358 203.118 1352.9 208.39C1347.89 213.662 1341.27 217.415 1333.03 219.649C1324.8 221.883 1314.64 223 1302.56 223C1290.83 223 1280.99 222.106 1273.02 220.319C1265.05 218.532 1258.61 215.494 1253.69 211.205C1248.76 206.915 1245.23 201.197 1243.08 194.048C1240.93 186.899 1239.86 177.963 1239.86 167.24V89.7666H1208.04V68.5887H1239.86V26.3669H1265.64V68.5887H1362.7V89.7666H1265.64V167.24C1265.64 175.819 1266.26 182.431 1267.52 187.078C1268.86 191.725 1270.96 195.12 1273.83 197.265C1276.69 199.409 1280.45 200.66 1285.1 201.018C1289.85 201.375 1295.62 201.554 1302.42 201.554C1307.79 201.554 1312.58 201.465 1316.79 201.286C1321.08 201.107 1324.8 200.571 1327.93 199.678C1331.15 198.695 1333.88 197.265 1336.12 195.388C1338.36 193.422 1340.15 190.697 1341.49 187.212C1342.92 183.727 1343.95 179.348 1344.58 174.076C1345.21 168.715 1345.52 162.147 1345.52 154.373H1367Z"/>
</mask>
<path d="M138.554 102.362C152.695 102.362 164.823 102.943 174.938 104.105C185.052 105.267 193.555 107.009 200.446 109.332C207.428 111.566 212.977 114.381 217.094 117.777C221.212 121.172 224.389 125.059 226.627 129.438C228.864 133.727 230.296 138.553 230.923 143.914C231.639 149.276 231.997 155.084 231.997 161.339C231.997 167.594 231.415 173.492 230.252 179.032C229.177 184.483 227.208 189.487 224.344 194.044C221.48 198.601 217.587 202.667 212.664 206.242C207.741 209.816 201.476 212.854 193.868 215.356C186.26 217.858 177.086 219.735 166.345 220.986C155.694 222.326 143.208 222.996 128.887 222.996H94.5173C81.6286 222.996 70.3509 222.505 60.6844 221.522C51.0178 220.539 42.6939 219.064 35.7125 217.099C28.7311 215.043 22.958 212.497 18.3933 209.458C13.8285 206.331 10.1588 202.712 7.38416 198.601C4.69901 194.402 2.8194 189.666 1.74534 184.393C0.671284 179.032 0.134261 173.134 0.134261 166.701H25.9117C25.9117 174.743 27.0753 181.043 29.4024 185.6C31.7295 190.157 35.5782 193.597 40.9485 195.921C46.3188 198.155 53.345 199.584 62.027 200.21C70.7984 200.746 81.6286 201.014 94.5173 201.014H128.887C143.924 201.014 156.41 200.299 166.345 198.87C176.28 197.44 184.201 195.161 190.109 192.034C196.016 188.906 200.178 184.84 202.595 179.836C205.011 174.743 206.219 168.577 206.219 161.339C206.219 154.101 205.369 148.069 203.669 143.244C202.058 138.419 198.791 134.576 193.868 131.717C189.035 128.857 182.187 126.847 173.326 125.685C164.465 124.434 152.875 123.808 138.554 123.808H103.11C87.3569 123.808 73.8416 123.228 62.564 122.066C51.3759 120.904 41.9778 119.251 34.3699 117.107C26.762 114.873 20.6757 112.147 16.1109 108.93C11.5461 105.624 8.05545 101.871 5.63881 97.6711C3.31169 93.4713 1.7901 88.8247 1.07406 83.7312C0.358024 78.5484 0 72.9635 0 66.9765C0 60.7214 0.537029 54.9132 1.61109 49.5517C2.77465 44.1902 4.87802 39.3648 7.92119 35.0756C10.9644 30.697 15.1263 26.8099 20.4071 23.4143C25.6879 20.0187 32.4456 17.2039 40.68 14.97C49.004 12.6466 58.9838 10.9041 70.6194 9.74249C82.2551 8.58083 95.9493 8 111.702 8H137.48C150.368 8 161.646 8.49147 171.313 9.47441C180.979 10.368 189.303 11.8424 196.284 13.8977C203.266 15.8635 209.039 18.3656 213.604 21.4038C218.258 24.3526 221.928 27.9269 224.613 32.1268C227.387 36.2373 229.312 40.9286 230.386 46.2007C231.46 51.4729 231.997 57.3258 231.997 63.7596H206.219C206.219 55.7174 205.056 49.4176 202.729 44.8603C200.402 40.3031 196.553 36.9074 191.183 34.6735C185.812 32.3502 178.741 30.9204 169.97 30.3843C161.198 29.7588 150.368 29.446 137.48 29.446H111.702C94.5173 29.446 80.3755 30.0715 69.2769 31.3225C58.1782 32.4842 49.4068 34.4948 42.9624 37.3542C36.518 40.2137 32.0428 44.0561 29.5366 48.8815C27.0305 53.7068 25.7774 59.7385 25.7774 66.9765C25.7774 71.4445 26.0907 75.4209 26.7172 78.9059C27.3438 82.3909 28.5968 85.4737 30.4765 88.1545C32.4456 90.7459 35.1755 92.9352 38.6662 94.7223C42.1568 96.5095 46.7664 97.9839 52.4947 99.1456C58.223 100.307 65.2044 101.156 73.4388 101.692C81.7628 102.139 91.6531 102.362 103.11 102.362H138.554Z" fill="white"/>
<path d="M413.716 151.42C413.716 164.556 412.642 175.547 410.494 184.393C408.346 193.151 404.721 200.165 399.619 205.437C394.607 210.709 387.984 214.462 379.749 216.696C371.515 218.93 361.356 220.047 349.273 220.047C337.548 220.047 327.702 219.154 319.736 217.367C311.77 215.58 305.326 212.541 300.403 208.252C295.48 203.963 291.945 198.244 289.797 191.095C287.649 183.947 286.574 175.011 286.574 164.288V86.8141H254.755V65.6361H286.574V23.4143H312.352V65.6361H409.42V86.8141H312.352V164.288C312.352 172.866 312.978 179.479 314.232 184.125C315.574 188.772 317.677 192.168 320.542 194.312C323.406 196.457 327.165 197.708 331.819 198.065C336.563 198.423 342.336 198.601 349.138 198.601C354.509 198.601 359.297 198.512 363.504 198.333C367.8 198.155 371.515 197.618 374.647 196.725C377.87 195.742 380.599 194.312 382.837 192.436C385.075 190.47 386.865 187.744 388.207 184.259C389.639 180.774 390.669 176.396 391.295 171.124C391.922 165.762 392.235 159.194 392.235 151.42H413.716Z" fill="white"/>
<path d="M435.197 141.769C435.197 125.953 436.898 112.862 440.299 102.496C443.7 92.1309 449.16 83.9099 456.679 77.8336C464.197 71.7572 473.953 67.5127 485.947 65.1C497.94 62.598 512.53 61.3469 529.715 61.3469C546.9 61.3469 561.489 62.598 573.483 65.1C585.476 67.5127 595.232 71.7572 602.751 77.8336C610.269 83.9099 615.729 92.1309 619.13 102.496C622.531 112.862 624.232 125.953 624.232 141.769C624.232 157.586 622.531 170.722 619.13 181.177C615.729 191.631 610.269 199.942 602.751 206.108C595.232 212.273 585.476 216.652 573.483 219.243C561.489 221.745 546.9 222.996 529.715 222.996C512.53 222.996 497.94 221.745 485.947 219.243C473.953 216.652 464.197 212.273 456.679 206.108C449.16 199.942 443.7 191.631 440.299 181.177C436.898 170.722 435.197 157.586 435.197 141.769ZM460.975 141.769C460.975 150.348 461.288 157.809 461.915 164.154C462.541 170.498 463.705 175.949 465.405 180.506C467.196 185.064 469.657 188.772 472.79 191.631C475.922 194.491 480.04 196.77 485.141 198.467C490.243 200.165 496.419 201.327 503.669 201.952C511.008 202.578 519.69 202.891 529.715 202.891C538.307 202.891 545.96 202.712 552.673 202.354C559.475 201.908 565.383 200.969 570.395 199.54C575.497 198.11 579.838 196.099 583.418 193.508C586.998 190.827 589.862 187.208 592.01 182.651C594.248 178.094 595.859 172.509 596.844 165.896C597.918 159.194 598.455 151.152 598.455 141.769C598.455 132.566 597.918 124.747 596.844 118.313C595.859 111.79 594.248 106.339 592.01 101.96C589.862 97.5817 586.998 94.1415 583.418 91.6394C579.838 89.048 575.497 87.1268 570.395 85.8758C565.383 84.5354 559.475 83.6865 552.673 83.3291C545.96 82.9717 538.307 82.7929 529.715 82.7929C521.122 82.7929 513.425 82.9717 506.622 83.3291C499.91 83.6865 494.002 84.5354 488.901 85.8758C483.888 87.1268 479.592 89.048 476.012 91.6394C472.432 94.1415 469.523 97.5817 467.285 101.96C465.137 106.339 463.526 111.79 462.452 118.313C461.467 124.747 460.975 132.566 460.975 141.769Z" fill="white"/>
<path d="M919.923 175.819H756.666L730.888 223H700.814L821.109 17.1183H855.479L975.774 223H945.7L919.923 175.819ZM907.034 154.373L838.294 34.2751L769.554 154.373H907.034Z" fill="white"/>
<path d="M1156.22 223V137.216C1156.22 127.655 1155.5 119.612 1154.07 113.089C1152.64 106.477 1149.77 101.16 1145.48 97.1387C1141.18 93.1176 1135.09 90.2135 1127.22 88.4263C1119.34 86.6391 1108.96 85.7455 1096.07 85.7455C1082.11 85.7455 1070.65 86.7732 1061.7 88.8284C1052.84 90.8836 1045.86 93.7878 1040.75 97.5408C1035.65 101.294 1032.12 105.806 1030.15 111.079C1028.27 116.351 1027.33 122.204 1027.33 128.638V223H1001.55V68.5887H1027.33V94.3239C1029.21 89.9454 1031.89 86.1923 1035.38 83.0648C1038.87 79.8479 1042.81 77.1225 1047.2 74.8885C1051.58 72.6545 1056.33 70.8674 1061.43 69.527C1066.53 68.0973 1071.63 67.0249 1076.74 66.3101C1081.84 65.5059 1086.76 64.9697 1091.5 64.7016C1096.34 64.4335 1100.72 64.2995 1104.66 64.2995C1116.12 64.2995 1125.96 65.0144 1134.2 66.4441C1142.52 67.8739 1149.55 69.9738 1155.28 72.7439C1161.09 75.514 1165.75 78.9543 1169.24 83.0648C1172.73 87.1753 1175.41 91.956 1177.29 97.4068C1179.26 102.768 1180.56 108.8 1181.19 115.502C1181.81 122.114 1182.13 129.352 1182.13 137.216L1181.99 223H1156.22Z" fill="white"/>
<path d="M1367 154.373C1367 167.508 1365.93 178.5 1363.78 187.346C1361.63 196.103 1358 203.118 1352.9 208.39C1347.89 213.662 1341.27 217.415 1333.03 219.649C1324.8 221.883 1314.64 223 1302.56 223C1290.83 223 1280.99 222.106 1273.02 220.319C1265.05 218.532 1258.61 215.494 1253.69 211.205C1248.76 206.915 1245.23 201.197 1243.08 194.048C1240.93 186.899 1239.86 177.963 1239.86 167.24V89.7666H1208.04V68.5887H1239.86V26.3669H1265.64V68.5887H1362.7V89.7666H1265.64V167.24C1265.64 175.819 1266.26 182.431 1267.52 187.078C1268.86 191.725 1270.96 195.12 1273.83 197.265C1276.69 199.409 1280.45 200.66 1285.1 201.018C1289.85 201.375 1295.62 201.554 1302.42 201.554C1307.79 201.554 1312.58 201.465 1316.79 201.286C1321.08 201.107 1324.8 200.571 1327.93 199.678C1331.15 198.695 1333.88 197.265 1336.12 195.388C1338.36 193.422 1340.15 190.697 1341.49 187.212C1342.92 183.727 1343.95 179.348 1344.58 174.076C1345.21 168.715 1345.52 162.147 1345.52 154.373H1367Z" fill="white"/>
<path d="M138.554 102.362C152.695 102.362 164.823 102.943 174.938 104.105C185.052 105.267 193.555 107.009 200.446 109.332C207.428 111.566 212.977 114.381 217.094 117.777C221.212 121.172 224.389 125.059 226.627 129.438C228.864 133.727 230.296 138.553 230.923 143.914C231.639 149.276 231.997 155.084 231.997 161.339C231.997 167.594 231.415 173.492 230.252 179.032C229.177 184.483 227.208 189.487 224.344 194.044C221.48 198.601 217.587 202.667 212.664 206.242C207.741 209.816 201.476 212.854 193.868 215.356C186.26 217.858 177.086 219.735 166.345 220.986C155.694 222.326 143.208 222.996 128.887 222.996H94.5173C81.6286 222.996 70.3509 222.505 60.6844 221.522C51.0178 220.539 42.6939 219.064 35.7125 217.099C28.7311 215.043 22.958 212.497 18.3933 209.458C13.8285 206.331 10.1588 202.712 7.38416 198.601C4.69901 194.402 2.8194 189.666 1.74534 184.393C0.671284 179.032 0.134261 173.134 0.134261 166.701H25.9117C25.9117 174.743 27.0753 181.043 29.4024 185.6C31.7295 190.157 35.5782 193.597 40.9485 195.921C46.3188 198.155 53.345 199.584 62.027 200.21C70.7984 200.746 81.6286 201.014 94.5173 201.014H128.887C143.924 201.014 156.41 200.299 166.345 198.87C176.28 197.44 184.201 195.161 190.109 192.034C196.016 188.906 200.178 184.84 202.595 179.836C205.011 174.743 206.219 168.577 206.219 161.339C206.219 154.101 205.369 148.069 203.669 143.244C202.058 138.419 198.791 134.576 193.868 131.717C189.035 128.857 182.187 126.847 173.326 125.685C164.465 124.434 152.875 123.808 138.554 123.808H103.11C87.3569 123.808 73.8416 123.228 62.564 122.066C51.3759 120.904 41.9778 119.251 34.3699 117.107C26.762 114.873 20.6757 112.147 16.1109 108.93C11.5461 105.624 8.05545 101.871 5.63881 97.6711C3.31169 93.4713 1.7901 88.8247 1.07406 83.7312C0.358024 78.5484 0 72.9635 0 66.9765C0 60.7214 0.537029 54.9132 1.61109 49.5517C2.77465 44.1902 4.87802 39.3648 7.92119 35.0756C10.9644 30.697 15.1263 26.8099 20.4071 23.4143C25.6879 20.0187 32.4456 17.2039 40.68 14.97C49.004 12.6466 58.9838 10.9041 70.6194 9.74249C82.2551 8.58083 95.9493 8 111.702 8H137.48C150.368 8 161.646 8.49147 171.313 9.47441C180.979 10.368 189.303 11.8424 196.284 13.8977C203.266 15.8635 209.039 18.3656 213.604 21.4038C218.258 24.3526 221.928 27.9269 224.613 32.1268C227.387 36.2373 229.312 40.9286 230.386 46.2007C231.46 51.4729 231.997 57.3258 231.997 63.7596H206.219C206.219 55.7174 205.056 49.4176 202.729 44.8603C200.402 40.3031 196.553 36.9074 191.183 34.6735C185.812 32.3502 178.741 30.9204 169.97 30.3843C161.198 29.7588 150.368 29.446 137.48 29.446H111.702C94.5173 29.446 80.3755 30.0715 69.2769 31.3225C58.1782 32.4842 49.4068 34.4948 42.9624 37.3542C36.518 40.2137 32.0428 44.0561 29.5366 48.8815C27.0305 53.7068 25.7774 59.7385 25.7774 66.9765C25.7774 71.4445 26.0907 75.4209 26.7172 78.9059C27.3438 82.3909 28.5968 85.4737 30.4765 88.1545C32.4456 90.7459 35.1755 92.9352 38.6662 94.7223C42.1568 96.5095 46.7664 97.9839 52.4947 99.1456C58.223 100.307 65.2044 101.156 73.4388 101.692C81.7628 102.139 91.6531 102.362 103.11 102.362H138.554Z" stroke="white" stroke-width="16" mask="url(#path-1-outside-1_61_385)"/>
<path d="M413.716 151.42C413.716 164.556 412.642 175.547 410.494 184.393C408.346 193.151 404.721 200.165 399.619 205.437C394.607 210.709 387.984 214.462 379.749 216.696C371.515 218.93 361.356 220.047 349.273 220.047C337.548 220.047 327.702 219.154 319.736 217.367C311.77 215.58 305.326 212.541 300.403 208.252C295.48 203.963 291.945 198.244 289.797 191.095C287.649 183.947 286.574 175.011 286.574 164.288V86.8141H254.755V65.6361H286.574V23.4143H312.352V65.6361H409.42V86.8141H312.352V164.288C312.352 172.866 312.978 179.479 314.232 184.125C315.574 188.772 317.677 192.168 320.542 194.312C323.406 196.457 327.165 197.708 331.819 198.065C336.563 198.423 342.336 198.601 349.138 198.601C354.509 198.601 359.297 198.512 363.504 198.333C367.8 198.155 371.515 197.618 374.647 196.725C377.87 195.742 380.599 194.312 382.837 192.436C385.075 190.47 386.865 187.744 388.207 184.259C389.639 180.774 390.669 176.396 391.295 171.124C391.922 165.762 392.235 159.194 392.235 151.42H413.716Z" stroke="white" stroke-width="16" mask="url(#path-1-outside-1_61_385)"/>
<path d="M435.197 141.769C435.197 125.953 436.898 112.862 440.299 102.496C443.7 92.1309 449.16 83.9099 456.679 77.8336C464.197 71.7572 473.953 67.5127 485.947 65.1C497.94 62.598 512.53 61.3469 529.715 61.3469C546.9 61.3469 561.489 62.598 573.483 65.1C585.476 67.5127 595.232 71.7572 602.751 77.8336C610.269 83.9099 615.729 92.1309 619.13 102.496C622.531 112.862 624.232 125.953 624.232 141.769C624.232 157.586 622.531 170.722 619.13 181.177C615.729 191.631 610.269 199.942 602.751 206.108C595.232 212.273 585.476 216.652 573.483 219.243C561.489 221.745 546.9 222.996 529.715 222.996C512.53 222.996 497.94 221.745 485.947 219.243C473.953 216.652 464.197 212.273 456.679 206.108C449.16 199.942 443.7 191.631 440.299 181.177C436.898 170.722 435.197 157.586 435.197 141.769ZM460.975 141.769C460.975 150.348 461.288 157.809 461.915 164.154C462.541 170.498 463.705 175.949 465.405 180.506C467.196 185.064 469.657 188.772 472.79 191.631C475.922 194.491 480.04 196.77 485.141 198.467C490.243 200.165 496.419 201.327 503.669 201.952C511.008 202.578 519.69 202.891 529.715 202.891C538.307 202.891 545.96 202.712 552.673 202.354C559.475 201.908 565.383 200.969 570.395 199.54C575.497 198.11 579.838 196.099 583.418 193.508C586.998 190.827 589.862 187.208 592.01 182.651C594.248 178.094 595.859 172.509 596.844 165.896C597.918 159.194 598.455 151.152 598.455 141.769C598.455 132.566 597.918 124.747 596.844 118.313C595.859 111.79 594.248 106.339 592.01 101.96C589.862 97.5817 586.998 94.1415 583.418 91.6394C579.838 89.048 575.497 87.1268 570.395 85.8758C565.383 84.5354 559.475 83.6865 552.673 83.3291C545.96 82.9717 538.307 82.7929 529.715 82.7929C521.122 82.7929 513.425 82.9717 506.622 83.3291C499.91 83.6865 494.002 84.5354 488.901 85.8758C483.888 87.1268 479.592 89.048 476.012 91.6394C472.432 94.1415 469.523 97.5817 467.285 101.96C465.137 106.339 463.526 111.79 462.452 118.313C461.467 124.747 460.975 132.566 460.975 141.769Z" stroke="white" stroke-width="16" mask="url(#path-1-outside-1_61_385)"/>
<path d="M919.923 175.819H756.666L730.888 223H700.814L821.109 17.1183H855.479L975.774 223H945.7L919.923 175.819ZM907.034 154.373L838.294 34.2751L769.554 154.373H907.034Z" stroke="white" stroke-width="16" mask="url(#path-1-outside-1_61_385)"/>
<path d="M1156.22 223V137.216C1156.22 127.655 1155.5 119.612 1154.07 113.089C1152.64 106.477 1149.77 101.16 1145.48 97.1387C1141.18 93.1176 1135.09 90.2135 1127.22 88.4263C1119.34 86.6391 1108.96 85.7455 1096.07 85.7455C1082.11 85.7455 1070.65 86.7732 1061.7 88.8284C1052.84 90.8836 1045.86 93.7878 1040.75 97.5408C1035.65 101.294 1032.12 105.806 1030.15 111.079C1028.27 116.351 1027.33 122.204 1027.33 128.638V223H1001.55V68.5887H1027.33V94.3239C1029.21 89.9454 1031.89 86.1923 1035.38 83.0648C1038.87 79.8479 1042.81 77.1225 1047.2 74.8885C1051.58 72.6545 1056.33 70.8674 1061.43 69.527C1066.53 68.0973 1071.63 67.0249 1076.74 66.3101C1081.84 65.5059 1086.76 64.9697 1091.5 64.7016C1096.34 64.4335 1100.72 64.2995 1104.66 64.2995C1116.12 64.2995 1125.96 65.0144 1134.2 66.4441C1142.52 67.8739 1149.55 69.9738 1155.28 72.7439C1161.09 75.514 1165.75 78.9543 1169.24 83.0648C1172.73 87.1753 1175.41 91.956 1177.29 97.4068C1179.26 102.768 1180.56 108.8 1181.19 115.502C1181.81 122.114 1182.13 129.352 1182.13 137.216L1181.99 223H1156.22Z" stroke="white" stroke-width="16" mask="url(#path-1-outside-1_61_385)"/>
<path d="M1367 154.373C1367 167.508 1365.93 178.5 1363.78 187.346C1361.63 196.103 1358 203.118 1352.9 208.39C1347.89 213.662 1341.27 217.415 1333.03 219.649C1324.8 221.883 1314.64 223 1302.56 223C1290.83 223 1280.99 222.106 1273.02 220.319C1265.05 218.532 1258.61 215.494 1253.69 211.205C1248.76 206.915 1245.23 201.197 1243.08 194.048C1240.93 186.899 1239.86 177.963 1239.86 167.24V89.7666H1208.04V68.5887H1239.86V26.3669H1265.64V68.5887H1362.7V89.7666H1265.64V167.24C1265.64 175.819 1266.26 182.431 1267.52 187.078C1268.86 191.725 1270.96 195.12 1273.83 197.265C1276.69 199.409 1280.45 200.66 1285.1 201.018C1289.85 201.375 1295.62 201.554 1302.42 201.554C1307.79 201.554 1312.58 201.465 1316.79 201.286C1321.08 201.107 1324.8 200.571 1327.93 199.678C1331.15 198.695 1333.88 197.265 1336.12 195.388C1338.36 193.422 1340.15 190.697 1341.49 187.212C1342.92 183.727 1343.95 179.348 1344.58 174.076C1345.21 168.715 1345.52 162.147 1345.52 154.373H1367Z" stroke="white" stroke-width="16" mask="url(#path-1-outside-1_61_385)"/>
</svg>
